<svg width="24" height="25" viewBox="0 0 24 25" fill="none" xmlns="http://www.w3.org/2000/svg">
<path fill-rule="evenodd" clip-rule="evenodd" d="M19.282 7.0064L19.9101 7.52333C19.9632 7.57272 19.9955 7.64048 20.0002 7.71277C20.005 7.78506 19.9819 7.85643 19.9356 7.9123L12.823 16.9691C12.7976 16.9998 12.7661 17.0249 12.7305 17.0427C12.6948 17.0605 12.6558 17.0707 12.616 17.0727C12.5761 17.0746 12.5363 17.0682 12.4991 17.0538C12.4619 17.0395 12.4281 17.0176 12.3999 16.9894L10.7908 15.4626C10.7373 15.4092 10.7072 15.3368 10.7072 15.2612C10.7072 15.1857 10.7373 15.1133 10.7908 15.0599L11.3743 14.4186C11.4279 14.3652 11.5006 14.3353 11.5764 14.3353C11.6522 14.3353 11.7248 14.3652 11.7784 14.4186L12.2832 14.8985C12.3117 14.9269 12.3458 14.9489 12.3835 14.9633C12.4211 14.9776 12.4614 14.9838 12.5016 14.9815C12.5418 14.9793 12.5811 14.9686 12.6169 14.9501C12.6526 14.9317 12.6841 14.9059 12.7092 14.8745L18.8633 7.03767C18.8879 7.0069 18.9185 6.98152 18.9534 6.96313C18.9882 6.94474 19.0265 6.93373 19.0658 6.93079C19.1051 6.92785 19.1446 6.93305 19.1819 6.94607C19.2191 6.95908 19.2532 6.97962 19.282 7.0064ZM14.6429 7.00762L15.3067 7.51655C15.3598 7.56594 15.3921 7.6337 15.3968 7.70599C15.4016 7.77828 15.3785 7.84965 15.3322 7.90552L8.19696 16.9659C8.17168 16.9966 8.14023 17.0217 8.10464 17.0395C8.06905 17.0573 8.03011 17.0676 7.99032 17.0695C7.95053 17.0714 7.91078 17.065 7.87363 17.0506C7.83648 17.0363 7.80276 17.0144 7.77462 16.9863L4.08447 13.3511C4.03093 13.2976 4.00085 13.2252 4.00085 13.1497C4.00085 13.0742 4.03093 13.0017 4.08447 12.9483L4.73293 12.3041C4.78654 12.2508 4.85921 12.2208 4.93498 12.2208C5.01074 12.2208 5.08341 12.2508 5.13703 12.3041L7.65937 14.8321C7.68784 14.8605 7.72204 14.8826 7.75972 14.897C7.79739 14.9113 7.83769 14.9175 7.87794 14.9152C7.9182 14.9128 7.9575 14.902 7.99325 14.8834C8.029 14.8648 8.0604 14.8389 8.08536 14.8073L14.2235 7.03889C14.2481 7.0081 14.2788 6.98271 14.3137 6.96431C14.3486 6.94591 14.3869 6.93489 14.4263 6.93196C14.4657 6.92902 14.5053 6.93423 14.5425 6.94725C14.5798 6.96027 14.614 6.98082 14.6429 7.00762Z" fill="#47CE8D"/>
</svg>
