<svg xmlns="http://www.w3.org/2000/svg" xmlns:xlink="http://www.w3.org/1999/xlink" viewBox="0 0 1395.47 1164.72"><defs><style>.cls-1{fill:url(#linear-gradient);}.cls-2{fill:url(#linear-gradient-2);}.cls-3{fill:url(#linear-gradient-3);}.cls-4{fill:url(#linear-gradient-4);}</style><linearGradient id="linear-gradient" x1="1504.42" y1="277.77" x2="1676.39" y2="680.82" gradientTransform="matrix(0.88, -0.18, 0.2, 0.98, -430.04, 815.27)" gradientUnits="userSpaceOnUse"><stop offset="0" stop-color="#3fa87f"/><stop offset="0.22" stop-color="#43ac84"/><stop offset="0.48" stop-color="#50b792"/><stop offset="0.75" stop-color="#64caa9"/><stop offset="1" stop-color="#7ce1c5"/></linearGradient><linearGradient id="linear-gradient-2" x1="-486.99" y1="7989.7" x2="-414.44" y2="8379.31" gradientTransform="translate(7725.26 3324.62) rotate(110.05)" gradientUnits="userSpaceOnUse"><stop offset="0" stop-color="#44bf94"/><stop offset="0.22" stop-color="#4bc49b"/><stop offset="0.54" stop-color="#5fd2ad"/><stop offset="0.92" stop-color="#80e9cc"/><stop offset="1" stop-color="#88eed3"/></linearGradient><linearGradient id="linear-gradient-3" x1="48.81" y1="789.83" x2="34.3" y2="920.59" gradientTransform="translate(854.64 639.84) rotate(79.72)" gradientUnits="userSpaceOnUse"><stop offset="0" stop-color="#88eed3"/><stop offset="0.08" stop-color="#80e9cc"/><stop offset="0.46" stop-color="#5fd2ad"/><stop offset="0.78" stop-color="#4bc49b"/><stop offset="1" stop-color="#44bf94"/></linearGradient><linearGradient id="linear-gradient-4" x1="-95.22" y1="367.53" x2="1416.54" y2="750.85" gradientUnits="userSpaceOnUse"><stop offset="0" stop-color="#83e5cb"/><stop offset="1" stop-color="#44bf94"/></linearGradient></defs><g id="Camada_2" data-name="Camada 2"><g id="Layer_4" data-name="Layer 4"><path class="cls-1" d="M707.1,1149.33c31.41,15.17,63.12,17.9,94.57,13.46a184.24,184.24,0,0,0,31.77-7.33,187,187,0,0,0,31.09-13.68c10.28-5.6,20.4-12,30.37-18.73,8.63-5.85,17.18-11.53,25.74-16.93s17.3-10.56,26.1-15.24a262.53,262.53,0,0,1,27.19-12.64,214.83,214.83,0,0,1,29.11-9.18,241.72,241.72,0,0,1,31.79-5.3,346.15,346.15,0,0,1,35.15-1.68c15.82,0,32.33.2,49.14.05,17-.15,34.33-.86,51.45-2.7a274.91,274.91,0,0,0,50.93-10.13,284,284,0,0,0,47.87-19.49c150.71-78.5,156.55-255.58,69.11-365.74-78.83-99.3-220-143.33-349.48-135-113.19,7.32-221.38,51.1-294.21,125.37C602.2,748.89,577.21,876.05,598,992.21,609.33,1055.14,646.47,1120.06,707.1,1149.33Z"/><path class="cls-2" d="M308.56,81.46C255,11.14,106.07-47.58,53.13,56.32,37.73,86.54,42.06,127.07,67,150.06c19.06,17.57,46.37,23,72.28,23.69s52-2.7,77.69.47,52.19,12.61,76.37,3.61c21.93-8.16,36.76-32.23,34.19-55.49C325.85,107.27,317.83,93.62,308.56,81.46Z"/><circle class="cls-3" cx="44.17" cy="831.7" r="44.17" transform="translate(-782.06 726.76) rotate(-79.72)"/><path class="cls-4" d="M1268.93,494c0,63.83-14.7,130.09-39.89,191.47-84.51,205.88-231.93,293-562.71,293-279.47,0-416.76-66.26-510.95-169.08C43.29,686.54,30,564.65,30,509.9c0-53.77,38.87-326.07,307.21-326.07,109.16,0,189.62,38.55,351.74,38.55,133.09,0,203.36-26.49,298.49-26.49C1238.56,195.89,1268.93,428,1268.93,494Z"/></g></g></svg>