<svg width="122" height="123" viewBox="0 0 122 123" fill="none" xmlns="http://www.w3.org/2000/svg">
<path d="M2.89062 119.196L11.0756 89.346C6.02853 80.5906 3.37352 70.6615 3.37713 60.5555C3.37713 28.788 29.2491 2.94501 60.9871 2.94501C76.4131 2.94501 90.8661 8.95501 101.741 19.83C112.616 30.7055 118.598 45.187 118.598 60.584C118.598 92.351 92.7261 118.194 60.9876 118.194H60.9591C51.3141 118.194 41.8411 115.762 33.4271 111.183L2.89062 119.197V119.196Z" fill="url(#paint0_linear)"/>
<path d="M0.80127 121.285L9.27227 90.3765C4.06377 81.333 1.28727 71.0585 1.31627 60.5555C1.31627 27.6435 28.1038 0.884521 61.0163 0.884521C76.9853 0.884521 91.9813 7.09452 103.229 18.3705C114.505 29.6465 120.715 44.643 120.687 60.584C120.687 93.496 93.8993 120.255 60.9868 120.255H60.9588C50.99 120.251 41.1807 117.752 32.4253 112.986L0.80127 121.286V121.285ZM33.9133 102.168L35.7163 103.255C43.3293 107.777 52.0578 110.153 60.9588 110.181H60.9873C88.3183 110.181 110.584 87.944 110.584 60.584C110.584 47.3335 105.433 34.884 96.0743 25.497C86.7158 16.11 74.2378 10.9585 60.9873 10.9585C33.6273 10.9585 11.3618 33.1955 11.3618 60.5555C11.3618 69.914 13.9658 79.0435 18.9458 86.942L20.1193 88.831L15.1108 107.119L33.9133 102.168Z" fill="white"/>
<path d="M46.0772 35.571C44.9607 33.081 43.7872 33.0235 42.7287 32.995C41.8702 32.9665 40.8687 32.9665 39.8667 32.9665C38.8652 32.9665 37.2622 33.3385 35.8887 34.8265C34.5147 36.315 30.6797 39.921 30.6797 47.2765C30.6797 54.6025 36.0317 61.7 36.7757 62.7015C37.5197 63.7035 47.1072 79.2435 62.2467 85.225C74.8392 90.205 77.4152 89.203 80.1337 88.9455C82.8812 88.688 88.9487 85.3395 90.2077 81.848C91.4382 78.3565 91.4382 75.38 91.0662 74.7505C90.6942 74.1205 89.6927 73.749 88.2042 73.0045C86.7162 72.2605 79.3897 68.6545 78.0162 68.1395C76.6422 67.6245 75.6407 67.3955 74.6677 68.8835C73.6657 70.3715 70.8042 73.72 69.9452 74.722C69.0867 75.7235 68.1997 75.838 66.7112 75.094C65.2232 74.35 60.4152 72.7755 54.7202 67.6815C50.2842 63.732 47.2792 58.838 46.4202 57.35C45.5617 55.862 46.3347 55.06 47.0787 54.3165C47.7367 53.658 48.5667 52.5705 49.3112 51.712C50.0552 50.8535 50.3127 50.224 50.7992 49.222C51.2857 48.2205 51.0567 47.362 50.6847 46.618C50.3127 45.8735 47.3937 38.5185 46.0772 35.571Z" fill="white"/>
<defs>
<linearGradient id="paint0_linear" x1="60.7421" y1="119.188" x2="60.7421" y2="2.93803" gradientUnits="userSpaceOnUse">
<stop stop-color="#20B038"/>
<stop offset="1" stop-color="#60D66A"/>
</linearGradient>
</defs>
</svg>
