<svg width="544" height="444" viewBox="0 0 544 444" fill="none" xmlns="http://www.w3.org/2000/svg">
<path d="M365.735 361.619C366.592 358.014 368.456 354.695 369.449 351.145C370.442 347.595 370.632 343.432 368.401 340.467C364.321 335.026 355.153 336.876 349.793 332.605C346.025 329.599 345.032 324.199 345.713 319.438C346.393 314.677 348.583 310.297 350.079 305.727C353.748 294.321 353.349 281.995 348.95 270.85C354.002 273.229 358.737 276.231 363.042 279.787C367.191 283.528 370.455 288.534 370.945 294.097C371.244 297.443 370.564 301.088 372.305 303.999C374.93 308.543 381.664 308.787 385.105 312.732C388.193 316.255 396.626 353.43 395.538 356.559C394.327 359.959 390.274 361.483 388.41 364.584C386.547 367.685 392.586 373.371 393.416 376.677C395.701 385.899 388.465 392.999 377.8 386.008C369.721 380.703 363.341 371.712 365.735 361.619Z" fill="#69C2D4"/>
<path d="M380.29 362.925C378.834 357.715 378.249 351.975 380.453 347.037C382.656 342.099 387.703 338.182 388.927 332.741C391.28 322.186 378.29 313.072 379.814 302.367C380.548 297.144 384.602 293.077 386.615 288.248C388.628 283.419 388.764 277.461 387.757 272.061C386.53 266.706 385.032 261.417 383.269 256.214C382.112 252.283 381.174 248.053 382.357 244.122C383.541 240.191 387.567 236.831 391.552 237.783C390.396 245.128 395.007 251.998 399.197 258.187C403.386 264.376 407.576 271.653 405.508 278.808C403.985 284.045 399.224 288.411 399.564 293.866C399.863 298.749 404.121 302.313 407.984 305.305C411.847 308.298 416.037 312.106 416.023 316.962C416.023 323.491 408.542 328.048 408.147 334.564C407.794 340.576 413.588 345.296 414.5 351.254C415.411 357.212 411.453 362.598 407.576 367.128C403.699 371.657 399.415 376.649 399.564 382.662C399.632 385.382 400.476 388.742 398.394 390.551C392.681 395.502 390.736 384.756 389.648 381.913C387.186 375.235 382.276 370.079 380.29 362.925Z" fill="#60AEDC"/>
<path d="M399.306 362.394C402.475 359.878 405.128 337.094 403.482 331.218C402.516 327.776 404.108 324.09 406.352 321.302C408.596 318.513 411.507 316.323 413.82 313.589C420.322 305.89 418.73 290.669 428.184 282.385C428.075 289.458 431.462 300.068 433.298 303.578C435.135 307.087 435.896 311.739 433.462 314.84C431.027 317.942 425.871 318.513 422.947 321.519C420.335 324.24 419.995 328.443 420.866 332.075C421.736 335.706 423.586 339.039 424.878 342.548C427.059 348.727 427.503 355.385 426.163 361.798C424.822 368.211 421.748 374.134 417.275 378.921C415.245 380.768 413.421 382.83 411.834 385.069C410.038 388.007 411.031 389.803 408.039 391.136C404.693 392.632 398.68 392.319 395.715 390.102C387.064 383.682 392.491 367.794 399.306 362.394Z" fill="#848DEA"/>
<path d="M411.792 443.124H374.019L366.197 391.884H419.6L411.792 443.124Z" fill="#F0EBE6"/>
<path d="M421.777 383.464H364.021C361.7 383.464 359.818 385.346 359.818 387.667C359.818 389.988 361.7 391.87 364.021 391.87H421.777C424.098 391.87 425.98 389.988 425.98 387.667C425.98 385.346 424.098 383.464 421.777 383.464Z" fill="#F0EBE6"/>
<path fill-rule="evenodd" clip-rule="evenodd" d="M51.3372 372.843C52.7172 375.753 54.5972 379.043 57.3372 379.843C59.2372 380.413 64.5572 376.843 65.6272 375.393C66.6972 373.943 63.3872 304.593 61.0072 300.393C57.8072 294.723 32.5572 302.543 33.4272 312.393C34.5372 324.953 38.1172 338.323 42.3672 350.783C44.9365 358.301 47.9313 365.666 51.3372 372.843Z" fill="#222B54"/>
<path d="M20.0073 437.233C22.7823 437.643 25.6143 437.414 28.2873 436.563L27.7273 426.793C27.7404 426.38 27.6475 425.97 27.4573 425.603C27.2678 425.367 27.0312 425.173 26.7626 425.034C26.494 424.894 26.1993 424.812 25.8973 424.793C23.6373 424.393 20.2073 424.273 20.1373 427.093C20.0073 430.473 20.0573 433.853 20.0073 437.233Z" fill="#F4A086"/>
<path d="M65.7971 437.233C68.5421 437.649 71.3463 437.42 73.9871 436.563L72.1771 426.793C72.1331 426.369 71.9891 425.961 71.7571 425.603C71.3214 425.134 70.7255 424.845 70.0871 424.793C67.7871 424.393 64.3371 424.273 64.6171 427.093C65.0071 430.473 65.4071 433.853 65.7971 437.233Z" fill="#F4A086"/>
<path fill-rule="evenodd" clip-rule="evenodd" d="M64.8772 364.853C61.2672 359.093 52.5772 355.143 48.8772 365.143C43.3172 380.393 60.9772 408.913 63.5972 427.323H73.1072C73.3672 425.543 66.8772 368.053 64.8772 364.853Z" fill="#222B54"/>
<path fill-rule="evenodd" clip-rule="evenodd" d="M19.1172 317.263C21.4172 319.083 24.4572 319.353 27.3172 319.353C50.8172 319.353 64.4272 311.713 61.1772 300.913C57.8372 289.823 36.7971 291.613 25.8072 295.193C23.4472 295.963 19.9872 296.703 18.3772 298.913C16.0072 302.123 13.5172 312.863 19.1172 317.263Z" fill="#0A3C5F"/>
<path d="M51.2671 241.233C52.0271 252.033 54.1471 263.103 60.2671 272.073C61.5771 274.003 63.4771 276.003 65.7971 275.763C66.4629 275.649 67.0955 275.391 67.6502 275.005C68.2049 274.62 68.6681 274.117 69.0071 273.533C69.7027 272.35 70.1612 271.042 70.3571 269.683C72.3571 259.123 69.1071 248.363 65.8971 238.113C64.5771 233.893 62.8171 226.423 58.5171 224.113C54.0471 221.743 51.7871 229.063 51.3771 232.053C51.0227 235.101 50.9859 238.178 51.2671 241.233Z" fill="#F4A086"/>
<path d="M50.7474 225.883C50.9574 224.093 51.4374 221.983 53.0974 221.203C54.7574 220.423 56.7274 221.583 58.0974 222.803C66.3374 230.213 69.4674 240.683 71.0074 251.873L51.2174 253.093C49.8752 244.082 49.7172 234.935 50.7474 225.883Z" fill="#AD2B5E"/>
<path fill-rule="evenodd" clip-rule="evenodd" d="M21.1175 372.843C21.9075 375.753 23.1175 379.043 25.6975 379.843C27.4775 380.413 33.5175 376.843 34.8775 375.393C36.2375 373.943 47.1375 315.763 45.5975 311.543C44.6006 308.89 42.917 306.55 40.719 304.762C38.521 302.973 35.8874 301.8 33.0875 301.363C25.3775 300.133 16.5075 302.523 15.3975 312.363C13.9675 324.923 14.8575 338.293 16.5875 350.753C17.6213 358.206 19.1344 365.585 21.1175 372.843Z" fill="#0A3C5F"/>
<path d="M85.1675 242.203C86.4775 241.263 88.0875 240.273 89.6075 240.833C90.2264 241.125 90.7422 241.597 91.0868 242.188C91.4314 242.779 91.5886 243.461 91.5375 244.143C91.5375 245.503 75.0875 272.273 68.1575 275.063C64.6675 276.463 61.9375 274.523 60.5275 271.463C58.5675 267.213 80.3875 245.683 85.1675 242.203Z" fill="#F7B690"/>
<path fill-rule="evenodd" clip-rule="evenodd" d="M36.7872 364.853C34.5572 359.103 25.7272 354.563 20.7872 365.143C12.7872 382.143 17.6872 407.643 19.1572 427.323H28.6072C29.2872 425.543 38.0072 368.053 36.7872 364.853Z" fill="#0A3C5F"/>
<path d="M63.7171 229.433C66.1171 232.973 65.2471 238.023 64.6471 242.113C63.3671 250.883 60.3671 259.373 58.6471 268.063C56.9271 276.753 56.4271 285.983 60.1271 294.193C60.8075 295.423 61.2773 296.758 61.5171 298.143C61.5997 298.86 61.4585 299.585 61.113 300.219C60.7675 300.853 60.2346 301.364 59.5871 301.683C58.7288 301.989 57.8158 302.112 56.9071 302.043L19.9071 301.803C19.092 301.871 18.2736 301.719 17.5371 301.363C16.0571 300.433 16.5371 298.423 17.1071 296.893C20.6671 286.603 17.6171 275.533 14.3871 265.163C11.1571 254.793 7.20709 242.163 9.00709 231.403C13.3671 226.083 22.2771 213.743 39.9371 213.743C52.2971 213.743 61.5671 226.253 63.7171 229.433Z" fill="#CC346F"/>
<path d="M2.84747 252.683C5.35156 243.174 10.5625 234.597 17.8475 227.993C19.1575 226.813 20.9275 225.633 22.5475 226.323C22.9793 226.536 23.3584 226.842 23.6576 227.219C23.9568 227.596 24.1685 228.034 24.2775 228.503C24.4941 229.437 24.5616 230.399 24.4775 231.353C24.0075 242.503 22.0075 253.553 20.0075 264.563C19.5236 267.971 18.6096 271.305 17.2875 274.483C15.9314 277.684 13.3965 280.24 10.2075 281.623C8.52747 282.263 5.76747 282.623 4.20747 281.433C2.95747 280.433 2.75747 277.973 2.43747 276.563C1.3364 271.542 0.999268 266.384 1.43747 261.263C1.65818 258.368 2.12995 255.497 2.84747 252.683Z" fill="#F4A086"/>
<path fill-rule="evenodd" clip-rule="evenodd" d="M0.00728824 256.203C-0.00242941 256.273 -0.00242941 256.343 0.00728824 256.413L0.00728824 256.203Z" fill="#18898D"/>
<path d="M24.7975 225.883C24.7075 224.093 24.3675 221.983 22.7475 221.203C21.1275 220.423 17.8975 221.933 16.4575 223.153C7.7375 230.563 2.8875 240.683 0.6875 251.873L22.6875 253.093C24.5677 244.153 25.2769 235.006 24.7975 225.883Z" fill="#CC346F"/>
<path d="M32.4372 247.823C34.1772 247.653 35.7272 249.213 36.1172 250.923C36.5072 252.633 16.3372 279.683 11.4572 283.453C9.97721 284.593 8.17721 285.793 6.37721 285.293C4.76721 284.843 3.81721 283.203 3.23721 281.633C2.13123 278.858 1.76595 275.842 2.17721 272.883C2.56721 270.943 4.31721 270.343 5.72721 269.243C10.9172 265.183 31.3172 247.933 32.4372 247.823Z" fill="#F7B690"/>
<path d="M37.9072 228.683C38.4172 228.203 39.1672 227.733 39.7672 228.083C39.9511 228.213 40.0959 228.391 40.1859 228.597C40.2758 228.803 40.3074 229.03 40.2772 229.253C40.2135 229.696 40.096 230.129 39.9272 230.543C39.2172 232.733 39.6572 235.103 39.8072 237.403C40.1104 242.595 38.8382 247.757 36.1572 252.213C33.8772 255.983 29.9272 249.943 30.0872 247.293C30.2634 242.841 31.3849 238.478 33.3772 234.493C34.554 232.318 36.085 230.355 37.9072 228.683Z" fill="#F7B690"/>
<path fill-rule="evenodd" clip-rule="evenodd" d="M55.4474 196.253C54.8574 197.253 54.1074 196.973 54.1474 195.833C54.2674 192.193 54.3974 191.623 52.7474 188.363C51.8474 186.573 51.5574 186.363 52.3774 185.813C55.1274 183.793 60.3174 188.103 55.4474 196.253Z" fill="#222B56"/>
<path d="M44.8674 201.363C43.6574 196.023 39.6174 194.773 37.2674 196.053C35.7674 206.053 34.2674 210.483 30.3174 215.943C35.1874 219.063 43.4974 218.483 45.3174 215.943C45.3674 215.133 45.4974 204.123 44.8674 201.363Z" fill="#F4A086"/>
<path d="M40.0071 187.103C40.9117 186.037 42.0704 185.216 43.3762 184.716C44.682 184.216 46.0927 184.053 47.478 184.243C48.8633 184.432 50.1786 184.967 51.3023 185.8C52.4259 186.632 53.3218 187.733 53.9071 189.003C56.3871 194.173 53.6671 205.093 51.5271 207.373C47.7671 211.373 39.8171 206.793 38.7071 203.813C37.1171 199.443 36.9371 190.953 40.0071 187.103Z" fill="#F7B690"/>
<path fill-rule="evenodd" clip-rule="evenodd" d="M42.0071 188.593C42.2271 189.433 40.2671 200.493 39.9571 200.363C38.8771 199.913 37.4971 196.813 35.4471 196.933C34.7871 196.933 33.8871 197.393 33.8571 196.083C33.6971 187.773 33.3771 188.193 34.8571 187.433C38.1071 185.753 41.5871 187.113 42.0071 188.593Z" fill="#222B56"/>
<path fill-rule="evenodd" clip-rule="evenodd" d="M32.9072 183.413C39.6872 178.653 50.7972 176.843 54.0172 178.743C58.8172 181.553 55.2872 189.603 53.4872 190.043C52.6672 190.243 51.9172 189.603 51.2172 189.123C47.8972 186.863 44.9272 188.593 42.4372 189.053C38.0072 189.863 27.1272 187.463 32.9072 183.413Z" fill="#222B56"/>
<path d="M33.6272 195.683C33.5111 197.044 33.9228 198.397 34.7772 199.463C37.2072 202.463 39.6472 198.403 39.0872 195.893C38.4172 192.863 34.0072 192.013 33.6272 195.683Z" fill="#F7B690"/>
<path fill-rule="evenodd" clip-rule="evenodd" d="M92.0071 442.013C92.1271 440.663 90.8471 439.543 89.5271 439.223C88.1809 439.048 86.8198 439.018 85.4671 439.133C83.5236 439.084 81.6279 438.52 79.9732 437.499C78.3184 436.479 76.9637 435.038 76.0471 433.323C75.8615 432.821 75.5351 432.384 75.1071 432.063C74.7757 431.917 74.4084 431.874 74.0522 431.938C73.6959 432.002 73.3669 432.171 73.1071 432.423C72.5571 432.873 72.1671 433.493 71.6671 433.993C71.2141 434.44 70.6766 434.792 70.086 435.029C69.4953 435.266 68.8634 435.383 68.2271 435.373C67.1571 435.373 65.9671 434.543 64.9471 435.083C63.9271 435.623 63.8071 436.803 63.5771 437.693C63.1871 439.223 62.8271 440.773 62.4571 442.303C62.3591 442.646 62.2955 442.998 62.2671 443.353H69.6471C70.0036 442.564 70.2621 441.735 70.4171 440.883C70.4421 441.744 70.6608 442.588 71.0571 443.353H91.3971C91.7476 442.989 91.9629 442.516 92.0071 442.013Z" fill="#0A3C5F"/>
<path fill-rule="evenodd" clip-rule="evenodd" d="M32.0073 442.013C32.067 441.494 31.9989 440.969 31.8089 440.483C31.6189 439.996 31.3128 439.564 30.9173 439.223C30.3373 438.913 29.4273 436.643 28.2273 433.323C27.6773 431.803 24.6073 431.383 23.0773 433.993C22.5773 434.843 22.0773 435.393 21.5673 435.373C21.0573 435.353 20.5673 434.543 20.1273 435.083C19.7358 435.898 19.5275 436.789 19.5173 437.693C19.3473 439.223 19.1873 440.773 19.0273 442.303C19.0273 442.643 18.9573 443.003 18.9473 443.353H31.6973C31.8772 442.928 31.9821 442.474 32.0073 442.013Z" fill="#0A3C5F"/>
<path d="M88.6273 232.433C89.389 231.685 90.3221 231.135 91.3451 230.83C92.3682 230.525 93.4503 230.474 94.4973 230.683C95.4458 230.987 96.2948 231.542 96.9547 232.288C97.6146 233.034 98.0612 233.944 98.2473 234.923C98.5966 236.901 98.182 238.939 97.0873 240.623C96.0873 242.313 92.0873 245.673 87.8473 244.503C85.2373 243.793 84.8473 242.013 85.0373 239.643C85.3041 236.879 86.5826 234.312 88.6273 232.433Z" fill="#F4A086"/>
<path d="M90.1672 237.413L83.3872 238.023C83.4883 239.782 83.7426 241.528 84.1472 243.243C84.5172 245.073 91.2972 245.603 91.5372 244.143C91.7472 242.853 90.7872 239.453 90.1672 237.413Z" fill="#F7B690"/>
<path d="M86.5672 240.993H94.7772C95.0313 240.978 95.2747 240.885 95.4748 240.728C95.675 240.571 95.8223 240.356 95.8972 240.113L100.897 222.703C100.938 222.603 100.953 222.494 100.94 222.387C100.927 222.28 100.888 222.177 100.825 222.089C100.762 222.002 100.678 221.931 100.58 221.885C100.483 221.838 100.375 221.817 100.267 221.823H92.0672C91.8114 221.836 91.5658 221.928 91.3637 222.085C91.1616 222.243 91.0127 222.458 90.9372 222.703L85.9372 240.113C85.8993 240.213 85.8866 240.321 85.9005 240.427C85.9143 240.534 85.9542 240.635 86.0165 240.722C86.0788 240.809 86.1617 240.879 86.2578 240.927C86.3539 240.974 86.4602 240.997 86.5672 240.993Z" fill="#3C79A6"/>
<path d="M85.7671 240.993H94.0071C94.2611 240.978 94.5045 240.885 94.7047 240.728C94.9048 240.571 95.0522 240.356 95.1271 240.113L100.127 222.703C100.168 222.603 100.182 222.494 100.17 222.387C100.157 222.28 100.117 222.177 100.055 222.089C99.9917 222.002 99.9076 221.931 99.8101 221.885C99.7126 221.838 99.6049 221.817 99.4971 221.823H91.2971C91.0412 221.836 90.7957 221.928 90.5935 222.085C90.3914 222.243 90.2426 222.458 90.1671 222.703L85.1671 240.113C85.1301 240.211 85.1172 240.316 85.1295 240.42C85.1419 240.524 85.1791 240.623 85.238 240.709C85.2968 240.796 85.3757 240.867 85.4678 240.916C85.5599 240.965 85.6626 240.992 85.7671 240.993Z" fill="#A2D1EB"/>
<path fill-rule="evenodd" clip-rule="evenodd" d="M86.4473 240.043H93.8373C94.0645 240.029 94.2819 239.945 94.4606 239.804C94.6393 239.663 94.7707 239.471 94.8373 239.253L99.3473 223.553C99.3825 223.463 99.3945 223.365 99.3823 223.269C99.3701 223.173 99.334 223.082 99.2773 223.003C99.2206 222.924 99.1452 222.861 99.0578 222.819C98.9705 222.777 98.874 222.758 98.7773 222.763H91.4073C91.1813 222.782 90.9658 222.866 90.7879 223.007C90.6099 223.147 90.4775 223.337 90.4073 223.553L85.8973 239.253C85.8628 239.342 85.8507 239.437 85.862 239.532C85.8733 239.626 85.9076 239.717 85.9619 239.795C86.0162 239.873 86.0889 239.936 86.1736 239.979C86.2582 240.023 86.3522 240.045 86.4473 240.043Z" fill="#222B56"/>
<path d="M85.2071 238.213C86.8371 236.213 89.1071 232.933 90.1271 231.713C90.4274 231.418 90.7049 231.1 90.9571 230.763C91.0868 230.598 91.1573 230.393 91.1573 230.183C91.1573 229.973 91.0868 229.769 90.9571 229.603C90.5571 229.243 89.9571 229.513 89.4671 229.793C87.2171 231.153 84.8271 232.673 83.8571 235.113C83.5228 236.045 83.3799 237.035 83.4371 238.023C83.4371 238.023 85.2971 238.493 85.2071 238.213Z" fill="#F7B690"/>
<path d="M93.0074 239.923C92.7966 240.341 92.6419 240.785 92.5474 241.243C92.5074 241.474 92.5289 241.71 92.6097 241.93C92.6904 242.149 92.8276 242.344 93.0074 242.493C93.2865 242.619 93.5936 242.671 93.8985 242.643C94.2035 242.615 94.496 242.508 94.7474 242.333C97.395 240.974 99.4207 238.651 100.407 235.843C100.857 234.523 100.987 232.843 99.9374 231.933C99.4147 231.568 98.7854 231.386 98.1484 231.417C97.5113 231.448 96.9025 231.689 96.4174 232.103C93.6274 234.213 94.1774 237.083 93.0074 239.923Z" fill="#F7B690"/>
<path fill-rule="evenodd" clip-rule="evenodd" d="M142.227 365.283C143.374 358.73 144.527 352.176 145.687 345.623C146.917 338.623 148.167 331.443 147.537 324.133C146.907 316.823 146.077 307.273 140.767 302.703C133.987 296.843 123.217 294.703 121.047 304.523C113.417 339.173 131.877 394.693 135.627 407.203C136.627 410.663 137.767 414.123 138.907 417.553H148.477C147.007 398.133 147.097 375.683 142.227 365.283Z" fill="#6A60D1"/>
<path d="M148.477 417.553H138.907C140.241 421.553 141.647 425.553 143.127 429.553C143.647 430.953 144.377 432.553 145.807 432.963C147.627 433.493 150.057 431.893 149.807 430.033C149.217 426.163 148.807 421.933 148.477 417.553Z" fill="#F4A086"/>
<path fill-rule="evenodd" clip-rule="evenodd" d="M148.887 373.603C150.057 376.773 151.937 380.343 154.947 380.453C156.767 380.513 158.447 379.163 159.487 377.453C160.459 375.644 161.153 373.699 161.547 371.683L168.007 345.623C169.747 338.623 171.507 331.443 171.407 324.133C171.307 316.823 169.067 309.203 164.087 304.623C157.727 298.773 146.157 299.483 143.887 309.453C140.887 322.653 141.027 337.343 143.037 350.703C144.202 358.516 146.162 366.189 148.887 373.603Z" fill="#7368E3"/>
<path fill-rule="evenodd" clip-rule="evenodd" d="M163.007 362.833C157.057 354.313 145.827 359.683 148.317 370.033C151.317 382.533 156.167 394.903 161.017 406.783C162.304 409.923 163.637 413.043 165.017 416.143L174.327 413.143C171.087 393.683 169.007 371.543 163.007 362.833Z" fill="#7368E3"/>
<path d="M174.277 413.133L164.967 416.133C166.721 420.086 168.541 424.006 170.427 427.893C171.067 429.203 171.937 430.673 173.427 430.893C175.277 431.133 177.527 429.133 177.087 427.313C176.007 422.933 175.097 418.123 174.277 413.133Z" fill="#F7B690"/>
<path fill-rule="evenodd" clip-rule="evenodd" d="M179.847 433.013C179.777 431.304 179.439 429.617 178.847 428.013C178.187 426.493 177.727 424.903 176.317 424.013C176.165 424.533 175.898 425.012 175.536 425.415C175.175 425.818 174.728 426.135 174.227 426.343C173.557 426.483 169.927 425.233 169.327 425.573C168.897 425.813 169.257 432.863 167.457 434.573C165.657 436.283 163.397 437.463 161.337 438.863C160.59 439.318 159.944 439.92 159.437 440.633C159.191 440.991 159.041 441.406 159.003 441.839C158.964 442.272 159.038 442.707 159.217 443.103C159.259 443.17 159.306 443.233 159.357 443.293L174.137 440.843C174.39 440.275 174.614 439.694 174.807 439.103C175.514 436.99 176.227 434.883 176.947 432.783C177.938 435.102 178.578 437.556 178.847 440.063L180.497 439.793L179.847 433.013Z" fill="#7368E3"/>
<path fill-rule="evenodd" clip-rule="evenodd" d="M141.747 325.133C146.637 324.993 182.747 328.133 162.747 296.433C159.957 292.013 152.897 291.533 147.747 290.873C140.747 289.993 127.057 290.063 123.687 296.433C113.137 316.303 136.337 325.283 141.747 325.133Z" fill="#7368E3"/>
<path d="M136.007 254.953C137.487 249.783 138.617 243.893 136.907 238.633C136.377 236.983 136.267 236.723 134.797 237.543C133.633 238.316 132.583 239.248 131.677 240.313C129.825 242.256 128.214 244.415 126.878 246.743C125.482 249.175 124.249 251.698 123.188 254.293L134.377 260.053C135.007 258.373 135.557 256.683 136.007 254.953Z" fill="#979DFE"/>
<path d="M123.227 254.293C122.517 256.003 121.837 257.733 121.167 259.463L110.007 287.993C109.563 288.855 109.412 289.838 109.577 290.793C110.007 292.263 111.897 292.883 113.367 292.443C114.817 291.885 116.079 290.929 117.007 289.683C124.659 281.011 130.573 270.948 134.427 260.043L123.227 254.293Z" fill="#F4A086"/>
<path d="M103.947 257.593C104.157 256.593 104.617 255.363 105.647 255.253C106.677 255.143 107.347 256.123 107.817 256.983C111.817 264.293 116.907 287.983 114.757 290.983C112.757 293.843 110.327 293.983 108.447 291.073C104.637 285.183 103.107 261.683 103.947 257.593Z" fill="#F7B690"/>
<path d="M118.377 258.003H110.177C109.922 257.991 109.678 257.899 109.477 257.742C109.276 257.584 109.13 257.368 109.057 257.123L104.007 239.683C103.969 239.582 103.956 239.473 103.971 239.366C103.985 239.259 104.026 239.157 104.089 239.07C104.153 238.983 104.237 238.912 104.334 238.866C104.432 238.819 104.539 238.798 104.647 238.803H112.847C113.108 238.81 113.361 238.899 113.569 239.057C113.777 239.215 113.93 239.434 114.007 239.683L119.007 257.093C119.052 257.195 119.07 257.306 119.059 257.416C119.048 257.527 119.009 257.633 118.946 257.724C118.883 257.815 118.798 257.889 118.698 257.938C118.598 257.986 118.488 258.009 118.377 258.003Z" fill="#A2D1EB"/>
<path d="M119.007 257.123L114.007 239.683C113.932 239.438 113.783 239.223 113.581 239.065C113.379 238.908 113.133 238.816 112.877 238.803H112.007C112.262 238.817 112.506 238.909 112.706 239.066C112.907 239.224 113.054 239.439 113.127 239.683L118.127 257.093C118.168 257.193 118.183 257.302 118.17 257.409C118.157 257.517 118.118 257.619 118.055 257.707C117.992 257.795 117.908 257.865 117.81 257.912C117.713 257.958 117.605 257.979 117.497 257.973H118.367C118.472 257.977 118.575 257.955 118.669 257.91C118.764 257.865 118.845 257.798 118.908 257.714C118.971 257.631 119.013 257.534 119.03 257.431C119.047 257.328 119.039 257.222 119.007 257.123Z" fill="#3C79A6"/>
<path d="M103.347 255.143C103.185 254.044 103.267 252.922 103.586 251.857C103.906 250.793 104.456 249.811 105.197 248.983C106.529 247.781 108.235 247.074 110.027 246.983C110.797 246.913 111.767 247.063 112.027 247.793C112.287 248.523 111.697 249.073 111.427 249.703C110.797 251.143 111.527 252.763 111.707 254.323C111.803 255.188 111.722 256.064 111.472 256.897C111.221 257.73 110.804 258.504 110.247 259.173C109.357 260.173 106.857 262.113 105.407 261.173C103.957 260.233 103.497 256.603 103.347 255.143Z" fill="#F7B690"/>
<path d="M155.227 281.073C153.937 268.833 167.087 258.563 165.847 246.313C165.007 237.963 156.747 231.363 148.347 231.473C139.947 231.583 132.237 237.693 129.237 245.533C127.816 249.276 127.339 253.312 127.847 257.283C128.207 260.043 129.027 262.713 129.497 265.453C130.327 271.075 130.008 276.808 128.557 282.303C127.397 287.103 124.907 291.683 123.667 296.433H162.757C161.627 294.453 155.607 284.603 155.227 281.073Z" fill="#979DFE"/>
<path fill-rule="evenodd" clip-rule="evenodd" d="M151.777 436.163C151.978 434.477 151.917 432.77 151.597 431.103C151.312 429.464 150.53 427.953 149.357 426.773C149.027 427.583 148.187 428.673 147.357 428.713C146.667 428.713 143.247 427.293 142.597 427.533C142.137 427.703 141.377 434.333 139.317 435.743C137.257 437.153 134.847 437.923 132.587 438.973C131.776 439.295 131.041 439.782 130.427 440.403C130.123 440.716 129.905 441.103 129.796 441.525C129.687 441.948 129.691 442.392 129.807 442.813C129.835 442.883 129.868 442.95 129.907 443.013H144.907C145.255 442.495 145.572 441.958 145.857 441.403L148.997 435.523C149.596 437.972 149.829 440.496 149.687 443.013H151.357L151.777 436.163Z" fill="#6A60D1"/>
<path d="M172.467 250.953C171.353 246.848 168.926 243.22 165.557 240.623C165.174 240.272 164.709 240.022 164.204 239.896C163.699 239.77 163.171 239.773 162.667 239.903C162.254 240.161 161.904 240.507 161.641 240.917C161.378 241.327 161.21 241.79 161.147 242.273C159.597 248.483 160.477 254.983 161.577 261.273L174.007 259.373C173.775 256.522 173.259 253.702 172.467 250.953Z" fill="#B3B8FF"/>
<path d="M174.407 263.443C174.297 262.083 174.187 260.723 174.037 259.373L161.577 261.323C161.677 261.933 161.787 262.533 161.887 263.143C163.014 269.47 164.14 275.803 165.267 282.143C165.697 284.523 165.637 287.373 167.777 288.923C168.549 289.501 169.474 289.837 170.437 289.891C171.399 289.944 172.356 289.712 173.187 289.223C173.867 288.723 174.441 288.094 174.877 287.371C175.313 286.649 175.602 285.847 175.727 285.013C175.949 283.354 175.949 281.672 175.727 280.013L174.407 263.443Z" fill="#F7B690"/>
<path d="M167.717 320.223C167.717 321.693 167.647 325.173 169.117 325.283C170.257 325.373 171.437 322.533 171.697 321.423C173.457 313.703 176.077 287.813 175.647 286.013C174.937 283.013 167.737 280.763 165.917 284.663C164.097 288.563 168.127 306.833 167.717 320.223Z" fill="#F7B690"/>
<path d="M165.727 324.193L164.227 330.983C164.417 331.453 165.167 331.333 165.467 330.933C165.695 330.484 165.873 330.011 165.997 329.523C166.197 329.053 166.727 328.633 167.167 328.863C167.607 329.093 167.577 329.743 167.467 330.243L166.007 337.083C166.808 337.541 167.736 337.725 168.651 337.608C169.566 337.491 170.418 337.078 171.077 336.433C172.37 335.106 173.222 333.412 173.517 331.583C174.078 329.079 174.186 326.495 173.837 323.953C173.779 322.449 173.158 321.021 172.097 319.953C169.187 317.583 166.247 321.803 165.727 324.193Z" fill="#F7B690"/>
<path fill-rule="evenodd" clip-rule="evenodd" d="M137.457 197.283C137.981 195.993 138.84 194.866 139.945 194.02C141.05 193.173 142.362 192.638 143.744 192.468C145.126 192.299 146.528 192.502 147.805 193.057C149.082 193.612 150.188 194.498 151.007 195.623C151.837 196.773 152.377 198.163 153.517 199.013C155.007 200.123 157.057 199.953 158.857 200.413C160.226 200.778 161.469 201.509 162.454 202.527C163.439 203.546 164.128 204.813 164.447 206.193C165.667 211.783 160.537 217.253 161.597 222.873C162.087 225.433 163.797 227.573 165.597 229.483C167.397 231.393 169.307 233.223 170.427 235.573C171.547 237.923 171.677 240.973 169.947 242.923C168.568 244.211 166.819 245.033 164.947 245.273C162.916 245.671 160.847 245.845 158.777 245.793C153.977 245.793 153.977 235.903 153.777 228.263C153.627 223.843 143.397 223.363 142.147 219.123C141.457 216.793 142.237 214.293 142.007 211.883C141.777 209.473 140.567 207.883 139.067 206.143C137.934 204.725 137.211 203.023 136.977 201.223C136.794 199.89 136.96 198.533 137.457 197.283Z" fill="#222B56"/>
<path d="M143.877 221.893C144.384 225.007 144.19 228.194 143.307 231.223C143.037 232.153 142.717 233.223 143.307 234.033C143.637 234.359 144.035 234.607 144.473 234.759C144.91 234.912 145.376 234.964 145.837 234.913C147.389 235.046 148.952 234.932 150.467 234.573C151.223 234.385 151.923 234.02 152.51 233.509C153.098 232.998 153.556 232.355 153.847 231.633C154.142 230.375 154.101 229.061 153.727 227.823L152.187 220.603C152.102 219.877 151.826 219.187 151.387 218.603C150.94 218.194 150.373 217.938 149.77 217.875C149.167 217.812 148.559 217.945 148.037 218.253C147.003 218.889 146.122 219.747 145.457 220.763L143.877 221.893Z" fill="#F4A086"/>
<path d="M139.297 220.853C138.617 219.249 138.231 217.535 138.157 215.793C137.813 213.424 137.792 211.018 138.097 208.643C138.428 206.258 139.69 204.101 141.607 202.643C143.987 201.013 147.197 201.073 149.937 201.993C152.307 202.803 154.597 204.343 155.527 206.673C155.964 207.961 156.183 209.313 156.177 210.673C156.364 212.438 156.235 214.223 155.797 215.943C155.137 217.805 153.918 219.419 152.307 220.563C150.708 221.699 148.971 222.626 147.137 223.323C146.111 223.802 145.013 224.109 143.887 224.233C141.637 224.343 140.237 222.683 139.297 220.853Z" fill="#F7B690"/>
<path fill-rule="evenodd" clip-rule="evenodd" d="M149.007 206.183C150.007 208.453 149.627 211.313 151.207 213.233C151.875 213.993 152.787 214.495 153.785 214.654C154.784 214.813 155.807 214.618 156.677 214.103C157.315 213.668 157.842 213.09 158.215 212.414C158.589 211.738 158.798 210.985 158.827 210.213C158.872 208.664 158.416 207.142 157.527 205.873C156.638 204.612 155.543 203.51 154.287 202.613C152.422 201.141 150.259 200.093 147.947 199.543C146.471 199.223 144.943 199.223 143.467 199.543C142.357 199.783 140.217 200.393 139.917 201.703C139.617 203.013 140.767 203.233 141.687 202.983C142.987 202.539 144.401 202.56 145.687 203.043C147.158 203.621 148.348 204.746 149.007 206.183Z" fill="#222B56"/>
<path d="M154.527 212.733C154.963 212.559 155.428 212.468 155.897 212.463C156.131 212.467 156.362 212.518 156.575 212.615C156.789 212.711 156.98 212.85 157.137 213.023C157.315 213.282 157.429 213.579 157.471 213.889C157.512 214.2 157.48 214.517 157.377 214.813C157.229 215.563 156.794 216.225 156.164 216.659C155.535 217.092 154.761 217.262 154.007 217.133C153.739 217.073 153.485 216.959 153.263 216.797C153.041 216.635 152.854 216.428 152.716 216.191C152.577 215.953 152.488 215.69 152.456 215.417C152.423 215.143 152.448 214.867 152.527 214.603C152.668 214.144 152.927 213.73 153.278 213.402C153.629 213.073 154.06 212.843 154.527 212.733Z" fill="#F7B690"/>
<path d="M249.55 327.36C231.61 318.23 210.25 318.31 193.75 330.57C177.25 342.83 166.9 384.46 169.4 407.62C169.81 411.42 176.62 442.67 198.11 442.67H260.23C329.4 442.67 284.29 345 249.55 327.36Z" fill="#72B2A2"/>
<g style="mix-blend-mode:multiply" opacity="0.5">
<path d="M246.22 333.18C234.96 328.36 221.56 328.4 211.22 334.88C200.88 341.36 194.37 363.33 195.94 375.56C196.2 377.56 200.47 394.07 213.94 394.07H252.94C296.34 394.07 268 342.5 246.22 333.18Z" fill="#72B2A2"/>
</g>
<path d="M232.69 427.23C235.62 420.39 233.75 411.59 227.35 407.36C222.79 404.36 216.92 403.99 211.52 402.72C191.69 398.08 177.86 381.11 159.28 373.08C143.28 366.16 123.56 366.64 108.56 375.37C93.5602 384.1 84.1502 401.22 86.4302 417.71C86.9202 421.29 89.6202 426.4 92.2902 431.16C94.3433 434.698 97.2988 437.628 100.855 439.65C104.411 441.672 108.44 442.714 112.53 442.67H210C213.384 442.697 216.734 441.987 219.816 440.59C222.898 439.193 225.64 437.142 227.85 434.58C229.817 432.382 231.448 429.905 232.69 427.23Z" fill="#FE6B80"/>
<g style="mix-blend-mode:multiply" opacity="0.5">
<path d="M111.9 382.52C106.9 386.19 102.59 391.86 103.9 397.67C104.77 401.4 107.9 404.36 111.29 406.39C116.94 409.73 123.67 411.04 130.29 411.61C136.91 412.18 143.62 412.04 150.24 412.79C160.54 413.94 170.43 417.18 180.47 419.65C190.51 422.12 201.06 423.85 211.23 421.93C212.611 421.81 213.904 421.204 214.88 420.22C216.43 418.22 214.72 415.42 212.76 413.77C207.23 409.1 199.76 407.27 192.76 405.01C181.184 401.286 170.165 396.015 160 389.34C154.946 386.01 150.128 382.334 145.58 378.34C143.77 376.75 142.12 374.49 139.65 373.95C137.18 373.41 133.57 374.12 131.04 374.53C124.116 375.637 117.556 378.376 111.9 382.52Z" fill="#FE6B80"/>
</g>
<path d="M219.43 425.61C216.19 418.05 218.25 408.32 225.33 403.61C230.33 400.29 236.85 399.89 242.82 398.49C264.73 393.36 280.01 374.61 300.54 365.74C318.25 358.09 340.01 358.62 356.54 368.27C373.07 377.92 383.54 396.82 380.99 415.05C380.45 419.05 377.47 424.65 374.52 429.91C372.249 433.817 368.984 437.052 365.056 439.287C361.128 441.521 356.679 442.675 352.16 442.63H244.54C240.801 442.66 237.1 441.877 233.693 440.335C230.286 438.793 227.255 436.529 224.81 433.7C222.629 431.283 220.816 428.557 219.43 425.61Z" fill="#F3B989"/>
<path d="M352.9 376.21C358.38 380.27 363.18 386.52 361.69 392.94C360.74 397.07 357.33 400.34 353.53 402.58C347.29 406.27 339.85 407.72 332.53 408.35C325.21 408.98 317.8 408.83 310.53 409.65C299.15 410.93 288.22 414.5 277.12 417.24C266.02 419.98 254.37 421.87 243.12 419.75C241.62 419.46 240.01 419.03 239.12 417.87C237.4 415.66 239.29 412.56 241.46 410.73C247.57 405.58 255.84 403.55 263.6 401.06C276.384 396.939 288.553 391.114 299.78 383.74C305.362 380.068 310.685 376.015 315.71 371.61C317.71 369.85 319.53 367.35 322.26 366.76C324.99 366.17 328.98 366.95 331.78 367.4C339.418 368.625 346.656 371.644 352.9 376.21Z" fill="#F3AF77"/>
<path d="M192.41 434.78C192.396 435.131 192.298 435.474 192.126 435.78C191.954 436.087 191.711 436.348 191.419 436.543C191.126 436.738 190.792 436.861 190.443 436.903C190.094 436.944 189.74 436.902 189.41 436.78L184.31 436.35C183.79 436.35 183.18 436.21 182.93 435.75C182.851 435.528 182.821 435.292 182.842 435.057C182.863 434.822 182.934 434.595 183.05 434.39L184.77 430.17C185.167 428.889 185.883 427.729 186.85 426.8C188.35 425.59 192.52 425.04 193.7 427.01C194.83 428.82 192.87 433 192.41 434.78Z" fill="#F7B690"/>
<path fill-rule="evenodd" clip-rule="evenodd" d="M165.21 441.33C165.08 439.98 166.37 438.86 167.69 438.54C169.036 438.365 170.398 438.335 171.75 438.45C173.694 438.4 175.589 437.837 177.244 436.816C178.899 435.795 180.254 434.354 181.17 432.64C181.356 432.138 181.682 431.701 182.11 431.38C182.442 431.234 182.809 431.191 183.165 431.255C183.521 431.319 183.85 431.488 184.11 431.74C184.66 432.19 185.04 432.81 185.55 433.31C186.003 433.757 186.541 434.109 187.131 434.346C187.722 434.583 188.354 434.7 188.99 434.69C190.06 434.69 191.24 433.86 192.27 434.4C193.3 434.94 193.41 436.12 193.64 437.01C194.03 438.54 194.39 440.09 194.76 441.62C194.858 441.963 194.922 442.315 194.95 442.67H187.57C187.214 441.881 186.955 441.052 186.8 440.2C186.775 441.061 186.556 441.905 186.16 442.67H165.84C165.482 442.309 165.26 441.836 165.21 441.33Z" fill="#0A3C5F"/>
<path fill-rule="evenodd" clip-rule="evenodd" d="M182.55 421.81C181.15 420.96 180.06 419.69 178.69 418.81C176.05 417.04 172.69 416.81 169.83 415.35C168.316 414.55 167.007 413.412 166.003 412.025C164.999 410.637 164.327 409.038 164.04 407.35C163.889 407.015 163.842 406.642 163.905 406.28C163.968 405.918 164.138 405.583 164.393 405.318C164.648 405.054 164.976 404.871 165.336 404.795C165.695 404.719 166.069 404.752 166.41 404.89C171.67 405.59 172.56 407.89 177.67 409.38C179.03 409.77 184.98 410.2 187.67 411.93C190.59 413.81 189.94 415.09 189.78 416.33C189.62 417.57 188.48 421.6 187.21 422.25C186.456 422.562 185.638 422.686 184.825 422.609C184.013 422.532 183.232 422.258 182.55 421.81Z" fill="#0A3C5F"/>
<path d="M190.6 411.55C190.809 411.273 190.95 410.951 191.012 410.61C191.075 410.269 191.057 409.917 190.959 409.584C190.862 409.251 190.689 408.946 190.453 408.691C190.217 408.437 189.925 408.242 189.6 408.12L185.37 405.24C184.93 404.94 184.37 404.63 183.92 404.83C183.717 404.953 183.543 405.119 183.411 405.316C183.278 405.513 183.189 405.736 183.15 405.97L181.82 410.32C181.327 411.567 181.152 412.918 181.31 414.25C181.71 416.14 184.6 419.19 186.77 418.41C188.73 417.7 189.82 413.24 190.6 411.55Z" fill="#F4A086"/>
<path d="M198.45 366.72C199.533 364.357 201.014 362.199 202.83 360.34L212.48 379.93C209.15 380.24 206.59 382.93 203.95 387.93C194.37 406.11 190.95 412.93 189.17 414.48C187.83 415.69 181.23 413.27 181.02 411.35C180.45 406.07 192.6 378.12 198.45 366.72Z" fill="#255880"/>
<path d="M274.54 408.32C270.61 409.96 252.77 406.32 248.71 405.08L230.82 399.48C227.98 398.59 221.39 394.48 218.67 395.72C214.97 397.37 198.19 427.03 194.46 430.45C193.22 431.58 185.41 430.55 185.1 427.95C184.79 425.35 194.94 401 199 391.32C200.436 387.554 202.241 383.94 204.39 380.53C206.563 377.106 209.727 374.424 213.46 372.84C218.75 370.84 262.71 382.95 264.56 384.57C267.16 386.86 278.67 406.61 274.54 408.32Z" fill="#2D6C9C"/>
<path d="M287.9 378.62C290.276 380.385 292.028 382.862 292.9 385.69C294.07 389.444 294.083 393.462 292.938 397.224C291.793 400.985 289.543 404.315 286.48 406.78C280.28 411.57 263.9 411.3 254.68 403.87C248.59 398.96 254.45 394.87 256.28 387.24C257.21 383.41 259.58 379.69 263.28 378.3C267.93 376.54 272.58 378.97 277.28 378.41C281.3 377.92 283.72 375.69 287.9 378.62Z" fill="#255880"/>
<path d="M205.47 358.59C215.73 354.18 263.29 371.19 270.57 386C272.96 390.86 270.62 396.35 267.84 400.57C263.47 407.21 256.32 405.16 250.4 401.92C240.957 396.758 231.885 390.944 223.25 384.52C218.73 381.17 209.84 374.14 206.49 377.82L202.83 360.34C203.605 359.612 204.498 359.02 205.47 358.59Z" fill="#255880"/>
<path fill-rule="evenodd" clip-rule="evenodd" d="M329.63 364.44C329.13 360.08 327.89 355.79 327.97 351.44C327.923 348.769 328.672 346.145 330.12 343.9C331.26 342.27 334.2 339.77 336.43 340.45C338.66 341.13 339.95 345.45 340.82 347.45C343.348 353.292 345.032 359.464 345.82 365.78C345.92 366.58 346.01 367.4 346.07 368.21L329.79 367.61C329.799 366.551 329.745 365.493 329.63 364.44Z" fill="#5AA3E7"/>
<path d="M299.94 384.75C304.13 382.44 309.15 382.44 313.94 382.05C318.73 381.66 323.87 380.62 326.94 376.96C329.1 374.39 329.83 370.96 329.83 367.57L346.11 368.17C346.5 373.17 346.11 378.27 343.79 382.65C340.23 389.41 332.64 393.27 325.07 394.29C317.5 395.31 309.84 393.92 302.34 392.53C300.08 392.11 297.34 391.2 297.05 388.93C296.82 387.14 298.37 385.63 299.94 384.75Z" fill="#F4A086"/>
<path fill-rule="evenodd" clip-rule="evenodd" d="M336.87 340.65C338.37 342.944 339.185 345.619 339.22 348.36C340.07 360.6 334.47 372.61 326.39 381.85C318.31 391.09 307.92 398 297.5 404.44C295.5 405.71 293.18 407.01 290.84 406.55C287.47 405.89 285.84 402.1 284.84 398.84L280.47 385.13C279.7 382.73 278.93 380.13 279.58 377.73C280.58 373.96 284.52 371.9 287.96 370.05C297.476 364.899 305.953 358.026 312.96 349.78C315.36 346.96 317.59 343.96 320.39 341.54C324.82 337.72 332.62 334.91 336.87 340.65Z" fill="#5FADDD"/>
<path d="M335.19 337.77C335.484 338.503 335.653 339.281 335.69 340.07C335.702 340.466 335.603 340.857 335.403 341.198C335.203 341.539 334.911 341.817 334.56 342C334.027 342.15 333.463 342.15 332.93 342L323.87 340.58C324.639 337.021 324.122 333.304 322.41 330.09C321.847 329.322 321.571 328.381 321.63 327.43C321.85 326.43 322.82 325.87 323.71 325.43C325.721 324.492 327.845 323.82 330.03 323.43C332.5 322.97 333.82 322.23 333.91 324.8C334.07 329.35 333.76 333.35 335.19 337.77Z" fill="#F4A086"/>
<path d="M339.11 315.16C340.7 317.87 340.89 321.67 338.7 323.92C337.297 325.126 335.611 325.955 333.8 326.33L324.32 329.14C322.42 329.7 317.65 328.91 316.05 327.74C314.45 326.57 316.05 325.34 316.05 323.32C316.05 320.06 319 315.55 320.11 312.48C321.22 309.41 321.44 307.99 324.52 306.89C329.92 305 336.56 310.8 339.11 315.16Z" fill="#F7B690"/>
<path fill-rule="evenodd" clip-rule="evenodd" d="M342.25 326.06C341.495 327.666 340.439 329.112 339.14 330.32C338.481 330.914 337.668 331.31 336.794 331.462C335.92 331.614 335.021 331.516 334.2 331.18C332.2 330.18 331.67 327.57 331.39 325.33C331.05 322.61 328.9 324.11 328.56 321.39C328.42 320.23 330.09 314.84 329.64 313.76C328.58 311.17 325.95 309.46 324.87 306.88C324.15 305.271 324.098 303.443 324.727 301.796C325.355 300.15 326.611 298.82 328.22 298.1C329.829 297.38 331.657 297.328 333.304 297.957C334.95 298.585 336.28 299.841 337 301.45C338.07 303.7 337.66 306.45 338.94 308.65C340.01 310.45 341.64 310.32 343.17 311.45C347.94 315 344.42 322.14 342.25 326.06Z" fill="#0A3C5F"/>
<path d="M335.89 322.67C336.038 321.748 335.818 320.805 335.278 320.044C334.737 319.282 333.919 318.764 333 318.6C331.14 318.35 328.58 324.46 329.18 325.23C332.46 325.89 335.08 324.74 335.89 322.67Z" fill="#F7B690"/>
<path d="M274.71 323.32C276.83 329.75 280.8 339.32 285.71 343.95C290.62 348.58 297.78 351.35 304.31 349.57C307.31 348.611 310.117 347.128 312.6 345.19L317.85 361.92C314.897 363.149 311.837 364.103 308.71 364.77C300.13 366.52 290.64 365.46 283.65 360.19C279.12 356.77 275.93 351.82 273.79 346.56C271.65 341.3 269.7 330.99 268.63 325.42C268.31 323.8 274.23 321.87 274.71 323.32Z" fill="#F7B690"/>
<path fill-rule="evenodd" clip-rule="evenodd" d="M315.63 343C319.2 340.42 323.18 338 327.58 337.92C337.58 337.76 338.58 348.73 332.36 354.4C329.95 356.57 326.47 357.84 323.61 359.29C321.72 360.29 319.8 361.14 317.84 361.94L309.84 346.02C310.85 345.27 314.62 343.71 315.63 343Z" fill="#5FADDD"/>
<path d="M275.06 316.9H266.86C266.604 316.885 266.359 316.793 266.157 316.636C265.956 316.479 265.806 316.264 265.73 316.02L260.73 298.6C260.692 298.5 260.679 298.392 260.693 298.286C260.707 298.179 260.747 298.078 260.809 297.991C260.871 297.904 260.954 297.834 261.05 297.786C261.146 297.739 261.253 297.716 261.36 297.72H269.57C269.824 297.735 270.067 297.828 270.267 297.985C270.467 298.142 270.615 298.357 270.69 298.6L275.69 316.02C275.728 316.12 275.74 316.228 275.726 316.334C275.713 316.441 275.673 316.542 275.61 316.629C275.548 316.716 275.465 316.786 275.369 316.833C275.273 316.881 275.167 316.904 275.06 316.9Z" fill="#3C79A6"/>
<path d="M275.86 316.9H267.66C267.405 316.885 267.16 316.793 266.958 316.636C266.756 316.479 266.607 316.264 266.53 316.02L261.53 298.6C261.492 298.5 261.479 298.392 261.493 298.286C261.507 298.179 261.547 298.078 261.609 297.991C261.672 297.904 261.755 297.834 261.851 297.786C261.947 297.739 262.053 297.716 262.16 297.72H270.37C270.624 297.735 270.867 297.828 271.068 297.985C271.268 298.142 271.415 298.357 271.49 298.6L276.49 316.02C276.528 316.12 276.541 316.228 276.527 316.334C276.513 316.441 276.473 316.542 276.411 316.629C276.348 316.716 276.265 316.786 276.169 316.833C276.073 316.881 275.967 316.904 275.86 316.9Z" fill="#A2D1EB"/>
<path d="M275.18 316H267.79C267.564 315.982 267.348 315.897 267.17 315.756C266.993 315.616 266.86 315.426 266.79 315.21L262.28 299.51C262.245 299.42 262.233 299.322 262.245 299.226C262.257 299.13 262.293 299.038 262.35 298.96C262.407 298.881 262.482 298.818 262.569 298.776C262.657 298.734 262.753 298.715 262.85 298.72H270.24C270.467 298.736 270.683 298.82 270.862 298.961C271.04 299.102 271.172 299.293 271.24 299.51L275.75 315.21C275.785 315.3 275.797 315.398 275.785 315.494C275.773 315.59 275.737 315.682 275.68 315.76C275.623 315.839 275.548 315.902 275.46 315.944C275.373 315.986 275.277 316.005 275.18 316Z" fill="#3C79A6"/>
<path d="M273.7 314.7C273.36 313.7 271.47 310.88 270.47 308.22C268.62 307.59 269.6 312.89 270.22 313.51C268.06 313.09 264.02 310.67 263.08 306.79C262.394 307.524 261.854 308.383 261.49 309.32C261.39 311.21 262.6 312.96 262.49 314.85C262.42 316.26 261.77 317.01 262.19 318.36C262.87 320.52 264.72 322.08 266.54 323.43C267.451 324.181 268.487 324.766 269.6 325.16C275.87 327.05 274.73 317.89 273.7 314.7Z" fill="#F7B690"/>
<path d="M267.15 298C266.81 297.23 266.48 296.47 266.15 295.7" stroke="#72B2A2" stroke-width="2" stroke-miterlimit="10" stroke-linecap="round"/>
<path d="M264.23 291.11C231.07 210.21 247.45 161 258.15 146C265.92 135.08 280.85 135.3 284.65 139.5C304.45 161.43 236.87 172.4 211.15 132C187.9 95.49 230.93 35.34 275.15 16C363.38 -22.58 421.62 51.05 537.55 3" stroke="#47CE8D" stroke-width="2" stroke-miterlimit="10" stroke-linecap="round" stroke-dasharray="8 12"/>
<path d="M539.85 2L542.15 1" stroke="#72B2A2" stroke-width="2" stroke-miterlimit="10" stroke-linecap="round"/>
</svg>
