<svg width="859" height="553" viewBox="0 0 859 553" fill="none" xmlns="http://www.w3.org/2000/svg">
<path d="M859 407.589C859 391.515 859 365.021 859 365.021C813.188 397.586 775.28 248.716 662.871 279.404C612.312 293.236 467.404 449.172 466.08 450.342H859C859 407.589 859 435.67 859 407.589Z" fill="#EDE7E4"/>
<path d="M374.495 174.152C362.408 169.682 348.996 171.536 336.334 173.932C322.281 176.603 306.926 179.683 294.32 172.927C284.385 167.595 278.357 157.219 270.509 149.105C262.66 140.991 249.987 134.843 240.328 140.704C229.289 147.427 229.499 165.443 218.25 171.978C210.523 176.393 200.687 173.512 192.971 169.108C181.634 162.628 170.893 153.576 157.073 158.234C145.217 162.23 138.847 173.159 138.196 185.136C138.196 185.975 138.141 186.781 138.196 187.576H390.579C386.889 181.412 381.22 176.681 374.495 174.152Z" fill="#EDE7E4"/>
<path d="M315.547 156.678C325.206 143.288 332.106 134.015 357.628 134.015C372.795 134.015 397.136 153.046 412.193 151.28C422.835 150.043 433.024 141.621 443.102 145.098C448.026 146.787 451.172 151.578 451.933 156.678H315.547Z" fill="#EDE7E4"/>
<path d="M519.929 96.5738C529.599 83.1836 536.487 73.9109 562.009 73.9109C577.177 73.9109 601.518 92.942 616.575 91.1758C627.216 89.9394 637.416 81.5167 647.484 84.994C652.418 86.694 655.553 91.4738 656.315 96.5738H519.929Z" fill="#EDE7E4"/>
<path d="M716.046 65.2894L680.81 50.8395C670.985 46.8102 658.732 43.1122 650.608 50.0115C645.596 54.3167 642.317 62.4855 635.738 61.9225C626.465 61.1167 620.284 40.1758 609.764 54.0739C606.143 58.8427 607.346 64.2628 610.36 68.7888H722.184C720.35 67.2851 718.275 66.102 716.046 65.2894Z" fill="#EDE7E4"/>
<path d="M779.365 117.99C782.489 105.692 795.736 100.107 801.84 89.2003C808.861 76.638 804.467 59.6049 795.305 49.2173C794.72 48.5439 748.721 -27.0618 709.477 10.4264C698.107 21.2777 695.226 58.2692 694.961 74.7062L693.78 150.213C693.261 183.208 721.929 205.904 751.525 195.958C763.8 191.84 782.952 180.084 786.728 165.733C791.199 148.733 775.093 134.78 779.365 117.99Z" fill="#F1D1B6"/>
<path d="M740.351 83.0237L738.146 83.1316L752.94 385.623L755.145 385.516L740.351 83.0237Z" fill="#EDE7E4"/>
<path d="M740.828 108.386L710.647 93.1081L711.641 91.1432L740.309 105.648L767.94 74.4302L769.595 75.8984L740.828 108.386Z" fill="#EDE7E4"/>
<path d="M742.936 151.173L742.594 151.074L711.729 141.889L712.358 139.77L742.87 148.855L776.241 137.021L776.98 139.107L742.936 151.173Z" fill="#EDE7E4"/>
<path d="M761.804 123.824L755.423 144.879L757.536 145.519L763.917 124.464L761.804 123.824Z" fill="#EDE7E4"/>
<path d="M722.125 78.7519L719.925 78.9443L721.602 98.112L723.802 97.9196L722.125 78.7519Z" fill="#EDE7E4"/>
<path d="M736.236 164.983C736.887 152.674 737.207 139.196 729.712 129.415C726.378 125.254 721.907 122.152 716.843 120.486C711.779 118.82 706.339 118.663 701.187 120.032C696.082 121.565 691.503 124.485 687.959 128.467C684.416 132.449 682.048 137.336 681.118 142.585C679.54 152.001 682.675 161.472 683.878 170.944C686.671 192.845 679.253 216.27 687.929 236.57C692.676 247.686 704.852 257.301 716.266 253.305C728.497 249.033 732.703 232.983 733.421 221.491C734.591 202.681 735.242 183.815 736.236 164.983Z" fill="#BCCACE"/>
<path d="M707.923 171.193L705.716 171.262L712.336 385.48L714.543 385.412L707.923 171.193Z" fill="#EDE7E4"/>
<path d="M707.722 199.192L691.285 185.625L692.698 183.925L707.49 196.146L724.446 177.148L726.101 178.627L707.722 199.192Z" fill="#EDE7E4"/>
<path d="M694.406 219.035L693.594 221.088L708.067 226.816L708.879 224.763L694.406 219.035Z" fill="#EDE7E4"/>
<path d="M845.157 183.473C843.744 180.404 841.636 177.7 840.167 174.642C838.699 171.584 837.96 167.919 839.384 164.861C841.437 160.512 847.011 159.011 849.837 155.125C853.149 150.511 851.725 143.953 849.01 138.942C846.294 133.93 842.452 129.382 841.117 123.84C839.295 116.301 842.441 108.331 841.117 100.659C840.013 94.5652 835.829 88.9354 830.001 86.8821C824.172 84.8289 816.952 86.8159 813.541 91.9821C808.695 99.323 812.438 109.302 810.23 117.824C808.022 126.346 800.074 132.881 799.765 141.624C799.555 147.618 803.077 153.027 804.754 158.779C806.697 165.303 806.322 172.268 805.649 179.046C804.975 185.824 804.026 192.646 804.876 199.402C806.499 212.251 819.834 226.591 833.323 217.362C842.883 210.894 850.102 194.236 845.157 183.473Z" fill="#EDE7E4"/>
<path d="M823.333 122.743L822.553 385.524L824.761 385.531L825.541 122.75L823.333 122.743Z" fill="#EDE7E4"/>
<path d="M457.359 425.648H478.543L489.14 401.628H467.945L457.359 425.648Z" fill="#616D7D"/>
<path d="M459.732 425.648H480.927L491.525 401.628H470.33L459.732 425.648Z" fill="#7590A2"/>
<path d="M455.648 425.637H496.316C497.181 425.637 497.883 424.935 497.883 424.07C497.883 423.204 497.181 422.502 496.316 422.502H455.648C454.783 422.502 454.081 423.204 454.081 424.07C454.081 424.935 454.783 425.637 455.648 425.637Z" fill="#758798"/>
<path d="M507.034 409.774C507.931 409.8 508.822 409.626 509.643 409.263C510.463 408.901 511.193 408.36 511.777 407.68C512.362 407 512.788 406.197 513.024 405.332C513.259 404.466 513.298 403.559 513.139 402.676L503.943 337.613C503.629 335.671 502.648 333.9 501.169 332.602C499.691 331.305 497.807 330.563 495.841 330.504H445.282C444.386 330.481 443.496 330.659 442.677 331.023C441.858 331.387 441.13 331.93 440.546 332.61C439.963 333.291 439.538 334.093 439.304 334.959C439.069 335.824 439.03 336.731 439.189 337.613L448.384 402.676C448.703 404.617 449.687 406.386 451.168 407.681C452.648 408.976 454.532 409.716 456.498 409.774H507.034Z" fill="#616D7D"/>
<path d="M510.92 409.774C511.816 409.801 512.707 409.626 513.527 409.264C514.348 408.901 515.077 408.36 515.661 407.68C516.245 406.999 516.669 406.197 516.903 405.331C517.138 404.466 517.175 403.558 517.013 402.676L507.818 337.613C507.504 335.671 506.523 333.9 505.044 332.602C503.566 331.305 501.682 330.563 499.715 330.504H449.157C448.26 330.479 447.369 330.655 446.549 331.019C445.729 331.383 445 331.925 444.416 332.606C443.832 333.288 443.408 334.09 443.174 334.957C442.94 335.823 442.902 336.73 443.064 337.613L452.259 402.676C452.576 404.616 453.558 406.385 455.036 407.68C456.514 408.975 458.397 409.716 460.362 409.774H510.92Z" fill="#758798"/>
<path d="M510.181 404.553C510.701 404.568 511.218 404.467 511.693 404.257C512.169 404.046 512.591 403.732 512.93 403.337C513.269 402.943 513.515 402.477 513.65 401.975C513.786 401.473 513.807 400.947 513.713 400.435L505.147 339.854C504.966 338.721 504.393 337.688 503.527 336.935C502.661 336.182 501.558 335.758 500.411 335.736H449.853C449.333 335.721 448.817 335.822 448.341 336.033C447.865 336.243 447.443 336.557 447.104 336.952C446.765 337.346 446.519 337.812 446.384 338.314C446.248 338.816 446.227 339.342 446.321 339.854L454.887 400.435C455.069 401.56 455.636 402.586 456.492 403.338C457.349 404.089 458.44 404.519 459.578 404.553H510.181Z" fill="#F7F6F0"/>
<path d="M502.288 350.142H451.597C451.266 350.151 450.942 350.047 450.678 349.846C450.415 349.645 450.229 349.36 450.151 349.038L449.433 344.38C449.418 344.231 449.435 344.081 449.485 343.939C449.535 343.798 449.616 343.67 449.722 343.565C449.828 343.459 449.956 343.378 450.097 343.328C450.238 343.278 450.388 343.26 450.537 343.276H501.228C501.557 343.271 501.877 343.377 502.138 343.578C502.398 343.778 502.583 344.061 502.663 344.38L503.381 349.038C503.398 349.186 503.382 349.337 503.333 349.478C503.285 349.619 503.205 349.747 503.1 349.853C502.995 349.959 502.867 350.04 502.727 350.09C502.586 350.14 502.436 350.158 502.288 350.142Z" fill="#BCCACE"/>
<path d="M464.071 391.008H457.988C457.635 391.012 457.291 390.895 457.014 390.676C456.737 390.457 456.543 390.149 456.465 389.805L450.946 354.226C450.931 354.069 450.951 353.909 451.003 353.76C451.056 353.61 451.14 353.474 451.25 353.36C451.36 353.245 451.493 353.156 451.641 353.098C451.788 353.04 451.946 353.015 452.105 353.023H458.187C458.542 353.017 458.889 353.133 459.168 353.352C459.447 353.571 459.643 353.88 459.722 354.226L465.241 389.805C465.256 389.964 465.236 390.124 465.183 390.274C465.129 390.425 465.044 390.562 464.933 390.676C464.822 390.791 464.687 390.879 464.538 390.937C464.39 390.994 464.23 391.018 464.071 391.008Z" fill="#BCCACE"/>
<path d="M506.67 379.969H489.372C489.019 379.973 488.675 379.856 488.398 379.637C488.121 379.418 487.927 379.11 487.849 378.766L484.052 354.226C484.037 354.069 484.057 353.909 484.109 353.76C484.162 353.61 484.246 353.474 484.356 353.36C484.466 353.245 484.599 353.156 484.747 353.098C484.894 353.04 485.052 353.015 485.211 353.023H502.509C502.862 353.019 503.206 353.137 503.483 353.356C503.76 353.575 503.954 353.882 504.032 354.226L507.829 378.766C507.844 378.924 507.824 379.083 507.772 379.233C507.719 379.382 507.635 379.519 507.525 379.633C507.415 379.747 507.282 379.836 507.134 379.894C506.987 379.952 506.829 379.978 506.67 379.969Z" fill="#BCCACE"/>
<path d="M508.646 384.021C508.492 383.06 507.962 382.276 507.454 382.276H489.273C488.754 382.276 488.467 383.06 488.611 384.021L490.631 397.046H510.655L508.646 384.021Z" fill="#BCCACE"/>
<path d="M484.383 371.845C484.228 370.884 483.698 370.1 483.19 370.1H476.269C475.75 370.1 475.463 370.884 475.607 371.845L479.503 397.002H488.268L484.383 371.845Z" fill="#BCCACE"/>
<path d="M466.058 395.17C465.914 394.21 465.384 393.426 464.866 393.426H457.944C457.436 393.426 457.138 394.21 457.293 395.17L457.58 397.046H466.356L466.058 395.17Z" fill="#BCCACE"/>
<path d="M472.814 377.761H466.731C466.376 377.768 466.03 377.652 465.75 377.432C465.471 377.213 465.275 376.905 465.197 376.558L461.775 354.226C461.76 354.069 461.78 353.909 461.832 353.76C461.885 353.61 461.969 353.474 462.079 353.36C462.189 353.245 462.322 353.156 462.47 353.098C462.617 353.04 462.775 353.015 462.934 353.023H469.016C469.371 353.017 469.718 353.133 469.997 353.352C470.277 353.571 470.472 353.88 470.551 354.226L474.006 376.558C474.021 376.719 474.001 376.881 473.946 377.033C473.892 377.185 473.805 377.324 473.691 377.438C473.577 377.553 473.44 377.642 473.288 377.697C473.137 377.753 472.975 377.775 472.814 377.761Z" fill="#BCCACE"/>
<path d="M472.703 353.023L474.734 366.16C474.878 367.12 475.419 367.893 475.927 367.893H482.848C483.356 367.893 483.654 367.12 483.499 366.16L481.468 353.023H472.703Z" fill="#BCCACE"/>
<path d="M475.099 381.702C474.955 380.742 474.414 379.969 473.907 379.969H466.985C466.477 379.969 466.179 380.742 466.334 381.702L468.707 397.046H477.472L475.099 381.702Z" fill="#BCCACE"/>
<path d="M457.547 362.892H453.473L452.292 355.231H456.365L457.547 362.892Z" fill="#CC346F"/>
<path d="M453.816 365.111L454.026 366.436H460.594L460.395 365.111H453.816ZM454.401 368.897H461.024L460.815 367.584H454.246L454.401 368.897ZM454.787 371.359H461.355L461.157 370.045H454.533L454.787 371.359ZM455.152 373.821H461.775L461.565 372.507H454.997L455.152 373.821ZM455.538 376.282H458.75L458.541 374.969H455.328L455.538 376.282Z" fill="#F7F6F0"/>
<path fill-rule="evenodd" clip-rule="evenodd" d="M468.354 362.892H464.281L463.1 355.231H467.173L468.354 362.892Z" fill="#FDD247"/>
<path d="M464.624 365.111L464.833 366.436H471.457L471.258 365.111H464.624ZM465.209 368.897H471.832L471.622 367.584H465.054L465.209 368.897ZM465.595 371.359H472.218L472.02 370.045H465.396L465.595 371.359ZM465.97 373.832H472.594L472.384 372.518H465.816L465.97 373.832ZM466.357 376.293H469.569L469.359 374.98H466.191L466.357 376.293Z" fill="#F7F6F0"/>
<path d="M482.108 379.969H478.046L476.854 372.308H480.927L482.108 379.969Z" fill="#70A0FE"/>
<path d="M478.389 382.188L478.587 383.513H485.211L485.001 382.188H478.389ZM478.974 385.974H485.542L485.343 384.661H478.72L478.974 385.974ZM479.349 388.436H485.972L485.763 387.122H479.195L479.349 388.436ZM479.735 390.909H486.359L486.16 389.595H479.537L479.735 390.909ZM480.111 393.371H483.323L483.124 392.057H479.912L480.111 393.371Z" fill="#F7F6F0"/>
<path d="M474.062 354.226L474.26 355.54H480.884L480.674 354.226H474.062ZM474.647 358.002H481.215L481.016 356.688H474.393L474.647 358.002ZM475.022 360.474H478.08L477.881 359.15H474.823L475.022 360.474Z" fill="#F7F6F0"/>
<path fill-rule="evenodd" clip-rule="evenodd" d="M503.888 362.892H486.568L485.387 355.231H502.696L503.888 362.892Z" fill="#66BCD5"/>
<path d="M486.911 365.111L487.12 366.436H504.429L504.231 365.111H486.911ZM487.496 368.897H497.773L497.563 367.584H487.297L487.496 368.897Z" fill="#F7F6F0"/>
<path fill-rule="evenodd" clip-rule="evenodd" d="M472.538 389.937H468.464L467.283 382.276H471.346L472.538 389.937Z" fill="#818BEA"/>
<path d="M468.807 392.156L469.005 393.47H475.629L475.43 392.156H468.807ZM469.392 395.943H473.62L473.421 394.629H469.193L469.392 395.943Z" fill="#F7F6F0"/>
<path fill-rule="evenodd" clip-rule="evenodd" d="M461.168 386.283H457.094L455.913 378.622H459.975L461.168 386.283Z" fill="#66BCD5"/>
<path d="M457.437 388.513L457.635 389.827H464.259L464.06 388.513H457.437Z" fill="#F7F6F0"/>
<path d="M383.078 425.648H361.884L351.297 401.628H372.481L383.078 425.648Z" fill="#616D7D"/>
<path d="M380.694 425.648H359.51L348.913 401.628H370.096L380.694 425.648Z" fill="#7590A2"/>
<path d="M384.778 422.513H344.111C343.245 422.513 342.543 423.215 342.543 424.081C342.543 424.947 343.245 425.648 344.111 425.648H384.778C385.644 425.648 386.346 424.947 386.346 424.081C386.346 423.215 385.644 422.513 384.778 422.513Z" fill="#758798"/>
<path d="M322.342 409.774C321.446 409.801 320.555 409.626 319.734 409.264C318.914 408.901 318.185 408.36 317.601 407.68C317.017 406.999 316.593 406.197 316.358 405.331C316.124 404.466 316.087 403.558 316.248 402.676L325.444 337.613C325.758 335.671 326.739 333.9 328.218 332.602C329.696 331.305 331.58 330.563 333.546 330.504H417.222C418.119 330.479 419.01 330.655 419.83 331.019C420.65 331.383 421.378 331.925 421.962 332.606C422.546 333.288 422.971 334.09 423.205 334.957C423.439 335.823 423.476 336.73 423.315 337.613L414.12 402.676C413.803 404.616 412.821 406.385 411.343 407.68C409.864 408.975 407.982 409.716 406.017 409.774H322.342Z" fill="#616D7D"/>
<path d="M318.467 409.774C317.571 409.801 316.68 409.626 315.86 409.264C315.04 408.901 314.311 408.36 313.727 407.68C313.143 406.999 312.718 406.197 312.484 405.331C312.25 404.466 312.212 403.558 312.374 402.676L321.58 337.613C321.897 335.672 322.878 333.902 324.356 332.605C325.835 331.308 327.718 330.565 329.683 330.504H413.358C414.255 330.479 415.146 330.655 415.966 331.019C416.786 331.383 417.515 331.925 418.099 332.606C418.683 333.288 419.107 334.09 419.341 334.957C419.575 335.823 419.613 336.73 419.452 337.613L410.256 402.676C409.941 404.617 408.96 406.387 407.481 407.683C406.003 408.978 404.119 409.718 402.154 409.774H318.467Z" fill="#758798"/>
<path d="M319.207 404.553C318.687 404.568 318.17 404.467 317.694 404.257C317.219 404.046 316.796 403.732 316.458 403.337C316.119 402.943 315.873 402.477 315.737 401.975C315.602 401.473 315.58 400.947 315.674 400.435L324.24 339.854C324.422 338.729 324.99 337.703 325.846 336.952C326.702 336.2 327.793 335.77 328.932 335.736H412.607C413.127 335.721 413.644 335.822 414.119 336.033C414.595 336.243 415.018 336.557 415.356 336.952C415.695 337.346 415.941 337.812 416.077 338.314C416.212 338.816 416.234 339.342 416.14 339.854L407.573 400.435C407.394 401.561 406.827 402.588 405.97 403.34C405.113 404.092 404.021 404.521 402.882 404.553H319.207Z" fill="#F7F6F0"/>
<path d="M410.742 350.142H326.846C326.653 350.149 326.462 350.112 326.285 350.035C326.109 349.957 325.953 349.841 325.827 349.694C325.702 349.548 325.612 349.375 325.562 349.189C325.513 349.003 325.507 348.808 325.543 348.619L326.095 344.755C326.164 344.338 326.376 343.958 326.694 343.68C327.012 343.403 327.417 343.244 327.84 343.232H411.735C411.927 343.227 412.118 343.265 412.293 343.343C412.469 343.421 412.624 343.538 412.749 343.683C412.874 343.829 412.965 344.001 413.015 344.187C413.065 344.372 413.073 344.566 413.038 344.755L412.486 348.619C412.419 349.036 412.208 349.417 411.889 349.696C411.571 349.974 411.165 350.132 410.742 350.142Z" fill="#BCCACE"/>
<path d="M332.144 391.008H321.05C320.846 391.013 320.643 390.972 320.456 390.889C320.269 390.806 320.103 390.682 319.97 390.527C319.837 390.371 319.74 390.188 319.686 389.991C319.632 389.794 319.623 389.587 319.659 389.385L324.66 354.646C324.734 354.203 324.959 353.799 325.297 353.503C325.635 353.207 326.065 353.037 326.514 353.023H337.553C337.758 353.018 337.96 353.059 338.147 353.142C338.333 353.225 338.499 353.349 338.631 353.505C338.763 353.66 338.859 353.844 338.911 354.041C338.964 354.239 338.971 354.445 338.933 354.646L333.944 389.385C333.872 389.82 333.655 390.217 333.328 390.512C333.001 390.806 332.584 390.982 332.144 391.008Z" fill="#BCCACE"/>
<path d="M406.116 379.969H376.631C376.427 379.974 376.224 379.933 376.037 379.85C375.85 379.767 375.684 379.643 375.551 379.488C375.418 379.332 375.321 379.15 375.267 378.952C375.213 378.755 375.204 378.548 375.24 378.347L378.651 354.646C378.725 354.203 378.95 353.799 379.288 353.503C379.627 353.207 380.057 353.037 380.506 353.023H409.991C410.196 353.016 410.4 353.056 410.588 353.138C410.776 353.221 410.943 353.345 411.076 353.5C411.21 353.656 411.307 353.84 411.36 354.038C411.412 354.237 411.42 354.444 411.382 354.646L407.971 378.347C407.899 378.791 407.674 379.196 407.336 379.492C406.997 379.788 406.566 379.957 406.116 379.969Z" fill="#BCCACE"/>
<path d="M407.154 384.021C407.206 383.822 407.214 383.614 407.177 383.411C407.139 383.209 407.057 383.018 406.937 382.851C406.817 382.684 406.661 382.546 406.481 382.447C406.3 382.347 406.101 382.289 405.895 382.276H376.189C375.74 382.318 375.319 382.515 374.998 382.833C374.678 383.151 374.479 383.571 374.434 384.021L372.558 397.046H405.277L407.154 384.021Z" fill="#BCCACE"/>
<path d="M372.359 371.845C372.41 371.646 372.416 371.438 372.378 371.237C372.339 371.035 372.257 370.845 372.137 370.678C372.017 370.512 371.862 370.374 371.683 370.274C371.504 370.174 371.305 370.115 371.101 370.1H359.775C359.325 370.144 358.903 370.341 358.581 370.658C358.26 370.976 358.057 371.395 358.008 371.845L354.388 397.002H368.738L372.359 371.845Z" fill="#BCCACE"/>
<path d="M333.16 395.17C333.213 394.971 333.221 394.763 333.183 394.561C333.146 394.358 333.064 394.167 332.944 394C332.823 393.833 332.667 393.695 332.487 393.596C332.307 393.497 332.107 393.438 331.902 393.426H320.598C320.147 393.467 319.724 393.663 319.402 393.981C319.08 394.299 318.878 394.72 318.832 395.17L318.556 397.046H332.906L333.16 395.17Z" fill="#BCCACE"/>
<path d="M351.706 377.761H340.611C340.408 377.765 340.207 377.723 340.022 377.639C339.836 377.555 339.672 377.431 339.541 377.275C339.41 377.12 339.315 376.937 339.264 376.741C339.212 376.544 339.205 376.338 339.243 376.139L342.333 354.646C342.403 354.201 342.627 353.795 342.966 353.498C343.305 353.201 343.738 353.033 344.188 353.023H355.227C355.432 353.016 355.636 353.056 355.824 353.138C356.012 353.221 356.179 353.345 356.312 353.5C356.446 353.656 356.543 353.84 356.595 354.038C356.648 354.237 356.656 354.444 356.618 354.646L353.593 376.139C353.518 376.587 353.288 376.996 352.943 377.292C352.598 377.589 352.16 377.755 351.706 377.761Z" fill="#BCCACE"/>
<path d="M360.725 353.023L358.826 366.16C358.775 366.359 358.769 366.566 358.808 366.768C358.847 366.97 358.93 367.16 359.052 367.326C359.173 367.492 359.329 367.628 359.51 367.726C359.69 367.824 359.89 367.881 360.096 367.893H371.399C371.849 367.852 372.27 367.657 372.592 367.341C372.914 367.025 373.117 366.608 373.166 366.16L375.053 353.023H360.725Z" fill="#BCCACE"/>
<path d="M353.273 381.702C353.324 381.503 353.33 381.296 353.291 381.094C353.252 380.892 353.169 380.702 353.047 380.536C352.926 380.37 352.77 380.234 352.589 380.136C352.409 380.038 352.209 379.981 352.003 379.969H340.7C340.25 380.01 339.829 380.205 339.507 380.521C339.185 380.836 338.983 381.254 338.933 381.702L336.726 397.046H351.076L353.273 381.702Z" fill="#BCCACE"/>
<path d="M332.045 362.892H325.389L326.493 355.231H333.149L332.045 362.892Z" fill="#CC346F"/>
<path d="M325.068 365.111L324.881 366.436H335.622L335.82 365.111H325.068ZM324.527 368.897H335.268L335.456 367.584H324.715L324.527 368.897ZM324.174 371.359H334.915L335.103 370.045H324.362L324.174 371.359ZM323.788 373.821H334.529L334.716 372.507H324.009L323.788 373.821ZM323.435 376.282H328.678L328.866 374.969H323.622L323.435 376.282Z" fill="#F7F6F0"/>
<path fill-rule="evenodd" clip-rule="evenodd" d="M349.707 362.892H343.051L344.155 355.231H350.8L349.707 362.892Z" fill="#FDD247"/>
<path d="M342.731 365.111L342.543 366.436H353.284L353.472 365.111H342.731ZM342.19 368.897H352.931L353.119 367.584H342.378L342.19 368.897ZM341.826 371.359H352.578L352.765 370.045H342.024L341.826 371.359ZM341.45 373.821H352.202L352.39 372.507H341.638L341.45 373.821ZM341.097 376.282H346.352L346.539 374.969H341.285L341.097 376.282Z" fill="#F7F6F0"/>
<path d="M365.416 379.969H358.759L359.863 372.308H366.52L365.416 379.969Z" fill="#70A0FE"/>
<path d="M358.439 382.188L358.251 383.513H369.047L369.235 382.188H358.439ZM357.898 385.963H368.639L368.826 384.65H358.086L357.898 385.963ZM357.545 388.425H368.286L368.473 387.111H357.732L357.545 388.425ZM357.191 390.898H367.943L368.131 389.584H357.39L357.191 390.898ZM356.827 393.36H362.082L362.269 392.046H357.026L356.827 393.36Z" fill="#F7F6F0"/>
<path d="M362.424 354.226L362.237 355.54H372.977L373.165 354.226H362.424ZM361.872 358.002H372.624L372.812 356.688H362.071L361.872 358.002ZM361.519 360.474H366.509L366.696 359.15H361.707L361.519 360.474Z" fill="#F7F6F0"/>
<path d="M407.761 362.892H379.479L380.572 355.231H408.865L407.761 362.892Z" fill="#70A0FE"/>
<path d="M379.148 365.111L378.96 366.436H407.253L407.441 365.111H379.148ZM378.607 368.897H395.386L395.574 367.584H378.795L378.607 368.897Z" fill="#F7F6F0"/>
<path fill-rule="evenodd" clip-rule="evenodd" d="M345.811 389.937H339.165L340.258 382.276H346.914L345.811 389.937Z" fill="#818BEA"/>
<path d="M338.834 392.156L338.646 393.47H349.398L349.586 392.156H338.834ZM338.293 395.943H345.203L345.391 394.629H338.481L338.293 395.943Z" fill="#F7F6F0"/>
<path fill-rule="evenodd" clip-rule="evenodd" d="M328.678 386.283H322.033L323.126 378.622H329.782L328.678 386.283Z" fill="#66BCD5"/>
<path d="M321.702 388.513L321.514 389.827H332.266L332.454 388.513H321.702Z" fill="#F7F6F0"/>
<path d="M296.389 372.165C298.682 381.749 302.086 391.034 306.533 399.828C307.737 402.213 309.459 404.851 312.119 405.006C315.199 405.182 317.76 402.058 318.279 399.022C319.692 390.699 317.606 377.353 315.331 366.06L296.389 372.165Z" fill="#F4A086"/>
<path fill-rule="evenodd" clip-rule="evenodd" d="M316.259 361.876C314.802 354.933 312.517 337.171 303.189 336.388C292.272 335.46 292.073 351.467 292.89 358.41C293.469 363.337 294.343 368.225 295.506 373.048L317.165 366.093C316.844 364.669 316.557 363.267 316.259 361.876Z" fill="#D97B6B"/>
<path d="M344.022 362.472C345.678 361.479 347.754 360.463 349.443 361.369C351.948 362.748 350.944 366.546 349.52 369.019C342.024 382.049 331.869 393.355 319.715 402.202C313.003 407.081 309.835 406.065 306.302 398.581C302.361 390.379 333.723 368.676 344.022 362.472Z" fill="#F7B690"/>
<path d="M347.554 355.661C351.838 352.25 357.821 352.273 363.296 352.449C363.594 353.145 362.998 353.928 362.313 354.237C361.629 354.547 360.856 354.591 360.161 354.9C358.362 355.706 357.843 358.013 357.865 359.989C357.887 361.965 358.185 364.084 357.202 365.795C356.627 366.626 355.86 367.306 354.967 367.778C354.073 368.251 353.08 368.502 352.069 368.511C349.63 368.687 343.547 367.495 342.896 364.471C342.3 361.678 345.556 357.262 347.554 355.661Z" fill="#F7B690"/>
<path d="M349.983 366.601C348.228 366.606 346.502 366.145 344.983 365.265C344.857 365.19 344.765 365.067 344.728 364.925C344.691 364.783 344.711 364.631 344.784 364.504C344.862 364.379 344.985 364.29 345.127 364.255C345.269 364.22 345.419 364.242 345.546 364.316C346.717 364.993 348.027 365.391 349.377 365.481C350.726 365.571 352.078 365.35 353.328 364.835C353.737 364.669 354.167 364.36 354.123 364.095C354.079 363.83 353.273 363.621 352.843 363.543C351.528 363.299 350.299 362.723 349.271 361.868C348.243 361.014 347.451 359.911 346.97 358.664C346.92 358.527 346.927 358.375 346.989 358.242C347.051 358.11 347.163 358.007 347.301 357.958C347.368 357.931 347.44 357.919 347.512 357.92C347.585 357.922 347.656 357.939 347.722 357.968C347.788 357.998 347.847 358.041 347.896 358.094C347.945 358.147 347.983 358.21 348.007 358.278C348.413 359.348 349.089 360.295 349.969 361.026C350.849 361.757 351.904 362.248 353.03 362.45C353.737 362.572 355.039 362.804 355.238 363.919C355.359 364.691 354.819 365.42 353.781 365.861C352.576 366.357 351.286 366.608 349.983 366.601Z" fill="#F4A086"/>
<path d="M282.546 394.011C280.162 388.226 254.949 395.203 250.71 404.884C247.883 406.888 245.719 409.69 244.495 412.932C242.652 418.043 243.303 423.121 244.043 427.945C246.677 445.209 250.074 462.187 254.232 478.878C254.431 480.111 254.94 481.273 255.711 482.256C257.852 484.464 261.396 483.559 264.487 481.483C264.696 481.59 264.914 481.678 265.138 481.748C267.136 482.378 273.605 478.437 275.073 476.836C276.541 475.235 284.478 398.68 282.546 394.011Z" fill="#A0B5BF"/>
<path d="M253.524 545.09C256.628 545.533 259.792 545.28 262.786 544.35L264.022 533.565C264.109 533.128 264.082 532.676 263.945 532.251C263.772 531.99 263.54 531.773 263.268 531.617C262.996 531.462 262.691 531.373 262.378 531.357C259.96 530.916 256.185 530.783 255.578 533.896C254.838 537.627 254.242 541.359 253.524 545.09Z" fill="#F4A086"/>
<path d="M276.409 465.19C274.333 458.831 266.043 454.471 258.746 465.51C247.564 482.344 257.642 513.827 254.463 534.15H264.895C265.745 532.185 277.557 468.755 276.409 465.19Z" fill="#A0B5BF"/>
<path d="M228.511 412.656C231.05 414.665 234.417 414.963 237.563 414.963C263.516 414.963 278.529 406.529 274.941 394.607C271.254 382.365 248.028 384.341 235.896 388.293C233.291 389.143 229.483 389.96 227.694 392.399C225.1 395.898 222.34 407.798 228.511 412.656Z" fill="#A0B5BF"/>
<path d="M223.588 404.012C227.264 386.714 258.305 390.997 261.893 408.174C263.748 417.005 261.407 426.178 258.427 434.667C255.993 441.685 253.121 448.542 249.827 455.2C246.869 461.161 243.403 468.976 239.793 474.573C239.385 475.191 224.007 474.363 223.444 471.074C222.049 462.888 221.179 454.621 220.839 446.324C220.221 432.448 220.685 417.667 223.588 404.012Z" fill="#A0B5BF"/>
<path d="M283.287 550.366C283.419 548.876 282.006 547.64 280.549 547.286C279.063 547.093 277.56 547.06 276.067 547.187C273.922 547.132 271.829 546.51 270.002 545.383C268.176 544.257 266.68 542.666 265.669 540.773C265.464 540.22 265.103 539.737 264.631 539.383C264.265 539.222 263.86 539.174 263.466 539.244C263.073 539.315 262.71 539.502 262.423 539.78C261.816 540.277 261.385 540.961 260.833 541.513C260.332 542.005 259.739 542.393 259.087 542.654C258.435 542.916 257.738 543.046 257.036 543.036C255.855 543.036 254.541 542.12 253.415 542.716C252.289 543.312 252.157 544.615 251.903 545.597C251.472 547.286 251.075 548.997 250.656 550.686C250.561 551.049 250.49 551.418 250.446 551.79H258.659C259.052 550.92 259.338 550.004 259.509 549.064C259.536 550.014 259.778 550.946 260.215 551.79H282.613C282.985 551.4 283.221 550.901 283.287 550.366Z" fill="#A0B5BF"/>
<path d="M192.59 540.707C195.254 542.28 198.239 543.231 201.322 543.489L204.833 533.267C205.014 532.85 205.09 532.395 205.053 531.942C204.956 531.623 204.794 531.326 204.578 531.072C204.361 530.818 204.095 530.61 203.795 530.463C201.653 529.105 198.198 527.549 196.94 530.463C195.438 533.819 194.036 537.274 192.59 540.707Z" fill="#F4A086"/>
<path d="M239.958 473.767C240.08 466.956 232.96 458.622 223.477 467.365C208.221 481.45 202.558 509.5 195.88 530.22L205.55 534.172C206.941 532.638 239.892 477.587 239.958 473.767Z" fill="#A0B5BF"/>
<path d="M202.812 550.587C203.091 550.082 203.242 549.515 203.252 548.938C203.262 548.361 203.13 547.79 202.867 547.275C202.404 546.712 202.426 544.019 202.58 540.122C202.647 538.345 199.699 536.623 197.061 538.654C196.2 539.316 195.504 539.692 194.942 539.438C194.379 539.184 194.268 538.179 193.595 538.533C192.858 539.207 192.274 540.031 191.884 540.95C191.067 542.451 190.261 543.964 189.455 545.465C189.271 545.796 189.095 546.138 188.925 546.492L201.995 551.834C202.336 551.468 202.613 551.046 202.812 550.587Z" fill="#A0B5BF"/>
<path fill-rule="evenodd" clip-rule="evenodd" d="M283.297 408.041C282.845 386.052 291.919 370.829 302.969 359.68C307.296 355.33 312.528 350.241 311.402 344.225C310.442 339.103 305.254 336.045 300.507 333.915C292.293 330.299 283.802 327.346 275.117 325.084C269.918 323.682 256.539 316.253 251.13 317.71C236.547 321.54 238.755 348.387 234.726 360.596C231.491 370.399 223.83 401.142 223.93 401.86L281.575 420.052C284.732 417.789 283.396 412.987 283.297 408.041Z" fill="#EB8674"/>
<path d="M293.828 317.886C291.388 311.263 284.997 308.393 281.53 309.055C280.261 320.094 280.051 320.745 274.576 325.669C272.964 331.552 288.927 337.26 291.432 334.963C291.454 334.08 295.086 321.297 293.828 317.886Z" fill="#F4A086"/>
<path fill-rule="evenodd" clip-rule="evenodd" d="M302.097 303.436C303.114 304.439 303.721 305.785 303.797 307.212C303.633 308.292 303.192 309.311 302.516 310.17L300.198 313.68C299.567 312.006 299.22 310.237 299.172 308.448C299.123 306.649 298.526 304.908 297.46 303.458C296.732 302.619 295.661 301.88 295.661 300.765C295.665 300.448 295.765 300.139 295.947 299.88C296.129 299.62 296.385 299.422 296.682 299.31C296.979 299.198 297.302 299.178 297.61 299.252C297.918 299.327 298.197 299.492 298.41 299.727C299.731 300.868 300.964 302.108 302.097 303.436Z" fill="#222B56"/>
<path d="M284.743 301.924C285.76 300.763 287.053 299.877 288.503 299.348C289.953 298.819 291.513 298.665 293.039 298.9C294.564 299.134 296.006 299.75 297.23 300.689C298.455 301.629 299.422 302.862 300.043 304.275C302.67 310.038 299.447 322.037 297.03 324.499C292.802 328.815 284.114 323.616 282.955 320.304C281.255 315.48 281.233 306.108 284.743 301.924Z" fill="#F7B690"/>
<path fill-rule="evenodd" clip-rule="evenodd" d="M286.863 303.613C287.094 304.54 284.655 316.705 284.357 316.562C283.176 316.043 281.707 312.588 279.444 312.676C278.727 312.676 277.722 313.151 277.722 311.704C277.722 302.52 277.347 302.984 278.992 302.178C282.635 300.39 286.443 301.968 286.863 303.613Z" fill="#222B56"/>
<path d="M277.48 311.23C277.317 312.725 277.741 314.225 278.661 315.414C281.288 318.725 284.07 314.31 283.496 311.572C282.823 308.238 277.944 307.212 277.48 311.23Z" fill="#F7B690"/>
<path fill-rule="evenodd" clip-rule="evenodd" d="M297.99 305.081C297.769 305.876 297.295 306.759 296.478 306.869C295.661 306.98 287.79 300.445 287.293 300.39C286.797 300.334 287.36 303.701 286.808 304.099C286.545 304.205 286.261 304.247 285.979 304.222C285.697 304.197 285.425 304.106 285.185 303.955C282.822 303.174 280.316 302.918 277.844 303.204C277.723 302.29 277.876 301.36 278.286 300.533C278.687 299.903 279.187 299.34 279.765 298.866C282.172 296.567 285.356 295.259 288.684 295.201C290.652 295.315 292.582 295.787 294.38 296.592C301.335 299.551 298.332 303.856 297.99 305.081Z" fill="#222B56"/>
<path d="M259.508 355.054L239.417 356.92C239.422 365.787 240.071 374.641 241.36 383.413L258.14 381.735C258.294 372.871 258.769 364.062 259.508 355.054Z" fill="#F7B690"/>
<path fill-rule="evenodd" clip-rule="evenodd" d="M261.142 341.708C261.981 334.047 267.92 322.777 259.409 319.134C251.572 315.767 244.275 321.021 242.685 328.451C240.472 339 239.362 349.751 239.374 360.53L261.297 359.625C261.794 354.083 260.502 347.493 261.142 341.708Z" fill="#EB8674"/>
<path d="M258.228 377.872L241.36 383.391C242.266 385.29 258.736 412.965 267.026 422.767C268.417 424.401 270.669 426.156 272.446 424.975C273.903 423.982 273.991 421.663 273.285 420.074C267.417 406.324 262.389 392.231 258.228 377.872Z" fill="#F7B690"/>
<path fill-rule="evenodd" clip-rule="evenodd" d="M278.053 303.889C277.651 303.929 277.267 304.079 276.944 304.322C276.621 304.565 276.371 304.893 276.221 305.269C276.133 304.302 276.289 303.328 276.675 302.437C277.061 301.547 277.664 300.766 278.429 300.169C277.446 300.301 276.707 299.12 276.916 298.149C277.225 297.2 277.89 296.408 278.771 295.941C281.519 294.179 284.79 293.419 288.033 293.788L288.209 292.541C290.175 292.978 291.964 293.997 293.342 295.466L293.519 294.362L297.758 296.934C297.706 296.876 297.67 296.805 297.654 296.729C297.638 296.653 297.643 296.573 297.667 296.499C297.692 296.425 297.736 296.359 297.794 296.308C297.853 296.256 297.924 296.221 298.001 296.206C299.503 297.399 300.751 298.881 301.671 300.565C302.59 302.249 303.163 304.1 303.355 306.008C301.652 304.025 299.508 302.467 297.096 301.46C293.486 299.97 289.368 299.76 285.99 297.884C286.072 298.363 286.043 298.855 285.904 299.321C285.765 299.787 285.52 300.215 285.19 300.572C284.859 300.928 284.45 301.204 283.996 301.377C283.541 301.55 283.053 301.617 282.568 301.571L283.573 300.544L278.053 303.889Z" fill="#222B56"/>
<path d="M277.116 416.1C278.533 416.585 279.785 417.462 280.726 418.628L285.241 423.286C285.848 423.904 286.499 424.765 286.135 425.56C285.922 425.888 285.59 426.12 285.209 426.209C284.829 426.297 284.428 426.235 284.093 426.035C283.436 425.602 282.91 424.999 282.569 424.291C282.468 424.916 282.144 425.484 281.657 425.89C281.171 426.296 280.553 426.512 279.92 426.498L278.165 424.6C277.061 425.991 274.941 425.946 273.164 425.781C270.261 425.516 266.673 424.578 268.748 421.222C270.283 418.793 273.981 415.393 277.116 416.1Z" fill="#F7B690"/>
<path d="M188.782 390.589C189.003 390.589 189.223 390.589 189.444 390.589C190.548 390.584 191.613 390.993 192.43 391.734C193.248 392.476 193.758 393.497 193.86 394.596L201.344 473.237C201.413 474.014 201.772 474.737 202.348 475.262C202.924 475.787 203.677 476.077 204.457 476.074H251.792C252.963 476.074 254.086 476.539 254.914 477.368C255.742 478.196 256.208 479.319 256.208 480.49C256.208 481.661 255.742 482.784 254.914 483.612C254.086 484.44 252.963 484.905 251.792 484.905H204.435C202.709 484.905 201.004 484.529 199.437 483.805C197.87 483.081 196.48 482.025 195.361 480.711C192.756 480.909 182.677 481.815 182.677 481.815L172.345 478.503L162.951 390.611L188.782 390.589Z" fill="#6370C7"/>
<path d="M177.941 476.074C177.161 476.077 176.409 475.787 175.832 475.262C175.256 474.737 174.897 474.014 174.828 473.237L167.344 394.596C167.242 393.497 166.732 392.476 165.915 391.734C165.097 390.993 164.032 390.584 162.928 390.589C162.311 390.586 161.701 390.712 161.136 390.96C160.571 391.208 160.064 391.571 159.648 392.027C159.232 392.482 158.916 393.02 158.72 393.605C158.525 394.19 158.454 394.81 158.513 395.424L165.997 474.065C166.275 477.029 167.648 479.783 169.849 481.788C172.05 483.793 174.92 484.905 177.897 484.905H225.232C225.812 484.905 226.386 484.791 226.922 484.569C227.457 484.347 227.944 484.022 228.354 483.612C228.764 483.202 229.09 482.715 229.311 482.18C229.533 481.644 229.648 481.07 229.648 480.49C229.648 479.319 229.182 478.196 228.354 477.368C227.526 476.539 226.403 476.074 225.232 476.074H177.941Z" fill="#828FEB"/>
<path d="M211.909 484.905H204.733V551.647H211.909V484.905Z" fill="#9797C2"/>
<path d="M233.92 551.636H182.754C182.754 549.733 183.51 547.908 184.856 546.562C186.202 545.216 188.027 544.46 189.93 544.46H226.734C227.677 544.459 228.611 544.643 229.483 545.003C230.355 545.363 231.147 545.892 231.814 546.558C232.482 547.225 233.011 548.016 233.373 548.887C233.734 549.759 233.92 550.693 233.92 551.636Z" fill="#4B4B6D"/>
<path d="M211.6 491.772H205.042C203.945 491.766 202.866 491.488 201.902 490.962C200.939 490.436 200.121 489.678 199.523 488.758L197.05 484.905H219.614L217.141 488.758C216.541 489.681 215.72 490.441 214.752 490.967C213.785 491.493 212.701 491.77 211.6 491.772Z" fill="#4B4B6D"/>
<path d="M270.868 419.787C267.39 418.153 247.498 415.371 243.977 413.837C239.131 411.728 235.466 406.032 233.081 401.319C231.768 398.702 230.719 395.976 229.67 393.249L214.801 401.098C216.808 404.562 219.054 407.882 221.523 411.033C225.299 415.846 229.681 420.35 235.079 423.176C240.709 426.189 264.023 426.554 270.327 425.549C275.416 424.533 274.334 421.42 270.868 419.787Z" fill="#F4A086"/>
<path d="M219.172 377.132C215.253 375.002 207.195 375.454 206.808 381.106C206.577 384.418 208.486 388.072 209.756 391.041C211.166 394.381 212.785 397.629 214.602 400.767L214.801 401.098L231.182 394.276C227.584 389.739 224.217 379.837 219.172 377.132Z" fill="#858BED"/>
<path d="M285.152 418.539C286.507 419.746 287.338 421.433 287.47 423.242C287.47 425.041 286.046 428.629 284.71 427.426C283.607 426.443 283.331 424.776 281.851 424.82C280.385 425.045 278.97 425.523 277.668 426.233C273.605 427.845 261.297 425.659 266.529 419.224C270.559 414.289 280.736 414.367 285.152 418.539Z" fill="#F4A086"/>
<path d="M312.374 540.398C313.213 541.668 314.339 543.07 315.851 543.036C318.456 542.97 318.655 539.25 317.992 536.744C317.286 534.04 316.591 531.335 315.884 528.631L307.682 531.026C308.754 534.373 310.337 537.534 312.374 540.398Z" fill="#F4A086"/>
<path fill-rule="evenodd" clip-rule="evenodd" d="M291.698 462.066C285.074 454.78 243.866 445.728 224.481 439.789C209.998 435.374 195.096 432.868 192.888 452.429C192.475 456.648 193.245 460.9 195.113 464.706C196.981 468.512 199.873 471.722 203.463 473.977C211.334 478.801 221.225 478.392 230.442 477.741L276.375 474.705C278.053 497.7 297.603 505.935 306.346 531.413L319.494 528.73C311.523 516.731 294.976 466.272 291.698 462.066Z" fill="#0A3C5F"/>
<path d="M222.23 528.52C221.557 529.878 220.905 531.556 221.689 532.847C223.047 535.055 226.37 533.377 228.213 531.556L234.185 525.672L226.138 520.87C224.835 523.409 223.521 525.948 222.23 528.52Z" fill="#F7B690"/>
<path fill-rule="evenodd" clip-rule="evenodd" d="M189.61 473.977C197.481 478.801 207.372 478.392 216.589 477.741L271.188 474.131C274.091 473.933 277.359 473.568 279.169 471.283C281.278 468.623 280.273 464.472 277.844 462.066C275.416 459.659 272.049 458.589 268.804 457.595L210.628 439.789C196.145 435.374 181.243 432.868 179.035 452.429C178.622 456.648 179.392 460.9 181.26 464.706C183.128 468.512 186.02 471.722 189.61 473.977Z" fill="#0A3C5F"/>
<path fill-rule="evenodd" clip-rule="evenodd" d="M280.239 467.089C276.232 454.67 251.229 479.231 246.858 485.766C239.356 497.102 232.448 508.819 226.16 520.87L235.918 528.851C242.321 515.958 255.093 505.063 265.536 494.763C268.969 491.374 272.479 487.897 274.565 483.503C276.652 479.11 280.957 469.296 280.239 467.089Z" fill="#0A3C5F"/>
<path d="M189.996 391.77C190.989 399.177 193.826 406.352 193.705 413.848C193.629 417.597 192.809 421.294 191.293 424.724C189.777 428.153 187.595 431.248 184.874 433.828C181.562 436.996 176.904 440.573 178.107 445.033C179.211 449.04 184.189 450.221 188.318 450.685C197.304 451.711 207.559 452.341 214.171 446.17C218.222 442.383 219.967 436.798 221.258 431.411C223.541 421.858 224.88 412.104 225.254 402.29C225.563 393.945 225 385.036 220.209 378.192C215.419 371.348 210.054 366.866 202.227 369.261C193.33 377.971 189.013 384.418 189.996 391.77Z" fill="#979DFE"/>
<path fill-rule="evenodd" clip-rule="evenodd" d="M308.664 534.702C309.172 535.596 311.524 536.016 312.495 536.06C313.257 536.06 316.767 534.492 317.529 534.746C318.07 534.934 320.112 542.264 322.64 543.82C325.223 545.197 327.902 546.389 330.654 547.386C331.624 547.744 332.522 548.275 333.303 548.953C333.682 549.28 333.98 549.69 334.171 550.152C334.363 550.614 334.444 551.115 334.407 551.614C334.407 551.702 334.352 551.768 334.33 551.846H317.772C317.297 551.283 316.866 550.664 316.447 550.068L311.91 543.566C311.424 545.94 311.016 548.711 310.563 551.846H308.709C308.157 549.34 306.523 537.329 308.664 534.702Z" fill="#222B54"/>
<path fill-rule="evenodd" clip-rule="evenodd" d="M215.993 536.722C216.46 534.911 217.205 533.183 218.201 531.6C219.157 530.032 220.571 528.795 222.252 528.057C222.252 529.017 222.683 530.485 223.566 530.872C224.261 531.181 228.357 531.07 228.92 531.578C229.306 531.92 227.672 538.201 228.71 540.829C228.71 540.829 232.441 543.655 234.373 545.012C235.185 545.524 235.884 546.196 236.426 546.988C236.696 547.387 236.857 547.85 236.892 548.331C236.926 548.811 236.834 549.292 236.625 549.726C236.582 549.802 236.53 549.873 236.47 549.936L222.23 547.331L220.287 546.569C220.146 545.895 220.042 545.213 219.978 544.527L219.117 537.208C217.516 539.488 216.259 541.991 215.386 544.637L213.675 543.964C214.503 541.546 215.231 539.14 215.993 536.722Z" fill="#0A3C5F"/>
<path d="M261.396 418.904C257.919 417.27 238.026 415.371 234.516 413.837C229.67 411.728 225.994 406.032 223.61 401.319C222.296 398.702 221.247 395.976 220.199 393.249L205.329 401.098C207.344 404.557 209.59 407.876 212.052 411.033C215.827 415.846 220.21 420.35 225.608 423.176C231.249 426.189 254.552 425.67 260.855 424.666C265.944 423.65 264.862 420.537 261.396 418.904Z" fill="#F7B690"/>
<path d="M217.517 386.681C215.762 382.873 213.388 379.097 209.712 377.11C205.782 374.98 197.724 375.432 197.338 381.084C197.106 384.396 199.016 388.05 200.285 391.019C201.7 394.357 203.318 397.605 205.131 400.745L205.33 401.076L221.712 394.254C220.873 392.057 218.51 388.834 217.517 386.681Z" fill="#979DFE"/>
<path d="M275.625 412.015C277.313 412.681 278.67 413.987 279.401 415.647C280.041 417.325 279.887 421.167 278.231 420.526C276.851 419.963 276.023 418.495 274.654 419.036C273.353 419.747 272.184 420.676 271.199 421.785C267.887 424.677 255.601 426.796 258.338 418.97C260.447 412.965 270.095 409.576 275.625 412.015Z" fill="#F7B690"/>
<path d="M203.74 352.195C204.435 350.893 212.03 354.812 212.482 355.75C212.935 356.688 213.41 367.297 215.044 373.92C215.386 375.355 201.223 370.972 202.227 369.239C203.861 366.435 205.528 355.739 203.74 352.195Z" fill="#F4A086"/>
<path d="M225.641 342.636C223.013 331.751 208.122 334.047 204.589 335.129C201.057 336.211 200.969 341.223 200.626 344.899C200.476 347.181 201.176 349.438 202.591 351.235C203.883 352.979 209.557 355.584 209.877 355.65C211.974 359.271 215.396 363.378 218.863 363.378C219.645 363.319 220.404 363.083 221.081 362.687C221.758 362.291 222.336 361.746 222.77 361.093C223.624 359.776 224.268 358.335 224.68 356.821C226.324 352.276 226.657 347.36 225.641 342.636Z" fill="#F7B690"/>
<path fill-rule="evenodd" clip-rule="evenodd" d="M199.865 348.961C198.518 347.423 197.631 345.537 197.304 343.519C197.084 341.099 197.734 338.68 199.137 336.697C201.543 333.131 207.736 328.528 212.737 328.428C218.08 328.318 227.264 333.639 226.392 340.262C226.127 342.238 225.045 342.249 223.146 342.878C220.652 343.717 217.307 344.291 215.243 345.914C212.77 347.857 213.863 352.537 208.796 354.061C207.162 354.558 205.484 357.439 204.38 359.691C203.1 358.223 201.124 350.473 199.865 348.961Z" fill="#222B56"/>
<path fill-rule="evenodd" clip-rule="evenodd" d="M192.359 362.594C191.884 364.636 192.602 366.767 192.491 368.853C192.215 373.71 187.678 377.232 186.155 381.857C185.481 383.645 185.533 385.626 186.298 387.376C186.694 388.23 187.349 388.937 188.169 389.396C188.99 389.856 189.934 390.045 190.868 389.937C192.9 389.573 194.18 387.586 194.986 385.665C195.792 383.745 196.244 381.625 197.668 380.146C199.876 377.828 203.685 377.618 205.804 375.234C207.924 372.849 209.37 366.546 209.37 361.832C209.37 352.736 206.455 344.446 202.095 345.749C199.49 346.532 198.783 351.268 198.044 353.354C196.841 356.832 193.198 359.006 192.359 362.594Z" fill="#222B56"/>
<path d="M206.599 349.8C206.348 350.062 206.179 350.392 206.113 350.749C205.857 351.884 206.059 353.074 206.676 354.061C206.985 354.541 207.386 354.955 207.856 355.279C208.326 355.603 208.855 355.831 209.414 355.949C209.853 356.067 210.321 356.02 210.727 355.816C212.052 355.01 211.379 352.195 210.727 351.102C210.076 350.01 207.736 348.74 206.599 349.8Z" fill="#F7B690"/>
<path d="M287.923 419.224L258.923 421.553C258.409 421.592 257.928 421.824 257.578 422.203C257.228 422.582 257.034 423.079 257.036 423.595C257.036 424.137 257.251 424.656 257.634 425.039C258.017 425.422 258.536 425.637 259.078 425.637H288.088C288.357 425.639 288.624 425.587 288.873 425.485C289.122 425.383 289.349 425.233 289.539 425.043C289.73 424.853 289.882 424.628 289.985 424.379C290.088 424.131 290.141 423.864 290.141 423.595V421.288C290.142 421.003 290.084 420.722 289.971 420.461C289.858 420.2 289.692 419.965 289.483 419.771C289.275 419.577 289.029 419.428 288.76 419.334C288.492 419.24 288.206 419.202 287.923 419.224Z" fill="#A2D1EB"/>
<path d="M290.513 432.377L279.5 551.764L282.798 552.068L293.81 432.681L290.513 432.377Z" fill="#D0D9DF"/>
<path d="M500.981 432.365L497.684 432.67L508.717 552.055L512.014 551.751L500.981 432.365Z" fill="#D0D9DF"/>
<path d="M528.892 425.648H262.633C260.743 425.648 259.21 427.178 259.21 429.065C259.21 430.952 260.743 432.482 262.633 432.482H528.892C530.782 432.482 532.314 430.952 532.314 429.065C532.314 427.178 530.782 425.648 528.892 425.648Z" fill="#62C1C5"/>
<path d="M580.201 390.821V390.876C579.982 390.841 579.76 390.822 579.538 390.821C578.436 390.816 577.372 391.223 576.555 391.962C575.738 392.701 575.227 393.72 575.123 394.817L567.649 473.469C567.578 474.245 567.219 474.966 566.643 475.491C566.067 476.016 565.316 476.307 564.536 476.306H517.212C516.041 476.306 514.918 476.771 514.09 477.599C513.262 478.427 512.797 479.551 512.797 480.722C512.797 481.893 513.262 483.016 514.09 483.844C514.918 484.672 516.041 485.137 517.212 485.137H564.547C566.273 485.135 567.978 484.759 569.544 484.035C571.111 483.311 572.502 482.256 573.621 480.942C576.227 481.13 586.305 482.046 586.305 482.046L596.638 478.735L606.032 390.843L580.201 390.821Z" fill="#4C8C7D"/>
<path d="M591.041 476.306C591.82 476.307 592.571 476.016 593.147 475.491C593.723 474.966 594.082 474.245 594.154 473.469L601.627 394.795C601.732 393.698 602.243 392.679 603.06 391.94C603.877 391.201 604.941 390.793 606.043 390.798C606.659 390.796 607.27 390.922 607.835 391.17C608.4 391.417 608.907 391.781 609.323 392.236C609.739 392.692 610.055 393.23 610.251 393.815C610.446 394.4 610.517 395.019 610.458 395.633L602.941 474.275C602.666 477.241 601.293 479.998 599.092 482.005C596.891 484.012 594.019 485.125 591.041 485.126H543.706C542.535 485.126 541.411 484.661 540.583 483.833C539.755 483.005 539.29 481.882 539.29 480.711C539.29 479.54 539.755 478.416 540.583 477.588C541.411 476.76 542.535 476.295 543.706 476.295L591.041 476.306Z" fill="#72B2A2"/>
<path d="M557.075 551.868H564.25V485.126H557.075V551.868Z" fill="#9797C2"/>
<path d="M586.25 551.879H535.073C535.073 549.976 535.829 548.151 537.175 546.805C538.52 545.459 540.345 544.703 542.248 544.703H579.074C580.977 544.703 582.802 545.459 584.148 546.805C585.494 548.151 586.25 549.976 586.25 551.879Z" fill="#4B4B6D"/>
<path d="M557.383 492.003H563.929C565.028 491.997 566.108 491.717 567.071 491.189C568.035 490.661 568.852 489.901 569.449 488.979L571.921 485.137H549.38L551.853 488.979C552.446 489.907 553.264 490.671 554.231 491.199C555.197 491.728 556.281 492.005 557.383 492.003Z" fill="#4B4B6D"/>
<path d="M384.977 495.072H348.946C345.963 495.074 343.088 493.96 340.884 491.951C338.68 489.941 337.307 487.18 337.035 484.21L330.411 413.815C330.258 412.158 330.452 410.487 330.98 408.909C331.509 407.331 332.361 405.881 333.482 404.651C334.603 403.421 335.968 402.438 337.49 401.765C339.013 401.093 340.658 400.745 342.322 400.745H391.567C393.231 400.745 394.877 401.093 396.399 401.765C397.921 402.438 399.286 403.421 400.407 404.651C401.528 405.881 402.38 407.331 402.909 408.909C403.438 410.487 403.632 412.158 403.478 413.815L396.855 484.21C396.58 487.173 395.211 489.928 393.015 491.937C390.819 493.945 387.953 495.063 384.977 495.072Z" fill="#F0AD82"/>
<path d="M370.549 495.072H363.374V551.879H370.549V495.072Z" fill="#4B4B6D"/>
<path d="M392.55 551.868H341.373C341.373 549.965 342.129 548.139 343.475 546.794C344.82 545.448 346.646 544.692 348.549 544.692H385.374C387.278 544.692 389.103 545.448 390.448 546.794C391.794 548.139 392.55 549.965 392.55 551.868Z" fill="#4B4B6D"/>
<path d="M373.827 501.939H360.095L355.679 495.072H378.243L373.827 501.939Z" fill="#4B4B6D"/>
<path d="M468.398 495.072H432.389C429.407 495.071 426.533 493.957 424.33 491.948C422.126 489.939 420.753 487.179 420.478 484.21L413.854 413.815C413.699 412.157 413.892 410.486 414.42 408.907C414.948 407.328 415.8 405.877 416.921 404.647C418.042 403.417 419.408 402.434 420.931 401.762C422.454 401.09 424.101 400.743 425.765 400.745H475.021C476.685 400.745 478.33 401.093 479.852 401.765C481.373 402.438 482.738 403.421 483.858 404.651C484.978 405.881 485.829 407.332 486.357 408.91C486.884 410.488 487.076 412.158 486.921 413.815L480.298 484.21C480.025 487.178 478.654 489.937 476.452 491.947C474.251 493.956 471.378 495.071 468.398 495.072Z" fill="#828FEB"/>
<path d="M453.992 495.072H446.817V551.879H453.992V495.072Z" fill="#4B4B6D"/>
<path d="M475.993 551.868H424.817C424.817 549.965 425.573 548.139 426.918 546.794C428.264 545.448 430.089 544.692 431.992 544.692H468.818C470.721 544.692 472.546 545.448 473.892 546.794C475.237 548.139 475.993 549.965 475.993 551.868Z" fill="#4B4B6D"/>
<path d="M457.271 501.939H443.539L439.123 495.072H461.687L457.271 501.939Z" fill="#4B4B6D"/>
<path d="M374.295 342.5C350.129 331.333 305.395 299.5 319.795 261.5C337.795 214 376.795 235.5 384.795 246C392.795 256.5 404.295 290.5 381.295 289C358.295 287.5 361.295 256.409 365.795 246C370.295 235.591 398.795 189 471.295 198.5C543.795 208 604.795 257 617.795 273" stroke="#47CE8D" stroke-width="2" stroke-linecap="round" stroke-dasharray="8 8"/>
<path d="M564.393 229.034L491.834 213.723L500.224 202.507L564.393 229.034Z" fill="#A1ADB0"/>
<path d="M564.392 229.034L498.976 182.56L501.459 222.444L564.392 229.034Z" fill="#BCCACE"/>
<path d="M564.393 229.034L500.511 207.21L491.834 213.723L499.87 196.888L564.393 229.034Z" fill="#799EA8"/>
<path fill-rule="evenodd" clip-rule="evenodd" d="M656.722 440.893C655.619 444.105 654.117 447.737 651.203 448.62C649.194 449.25 642.747 445.309 641.334 443.708C639.921 442.107 632.393 365.552 634.347 360.916C636.963 354.668 666.095 363.3 666.713 374.163C667.519 388.028 665.719 402.787 663.037 416.541C661.44 424.782 659.332 432.915 656.722 440.893Z" fill="#222B54"/>
<path d="M707.369 503.628C704.64 505.062 701.62 505.859 698.538 505.957L695.546 495.58C695.384 495.155 695.335 494.695 695.403 494.244C695.514 493.929 695.688 493.639 695.916 493.394C696.144 493.149 696.421 492.954 696.728 492.82C698.935 491.584 702.468 490.204 703.572 493.118C704.863 496.596 706.088 500.128 707.369 503.628Z" fill="#F4A086"/>
<path d="M651.148 511.973C648.077 512.424 644.944 512.171 641.986 511.233L642.405 500.448C642.389 499.994 642.483 499.543 642.681 499.135C642.889 498.876 643.149 498.662 643.443 498.508C643.738 498.355 644.061 498.263 644.392 498.24C646.876 497.799 650.662 497.666 650.806 500.779C650.972 504.511 651.027 508.242 651.148 511.973Z" fill="#F4A086"/>
<path fill-rule="evenodd" clip-rule="evenodd" d="M640.484 432.073C643.542 425.715 652.495 421.354 658.146 432.393C666.746 449.228 651.854 480.711 651.921 501.033H641.489C640.893 499.068 638.795 435.639 640.484 432.073Z" fill="#222B54"/>
<path fill-rule="evenodd" clip-rule="evenodd" d="M680.345 379.539C677.807 381.548 674.451 381.846 671.294 381.846C645.352 381.846 633.927 375.675 633.927 361.49C633.927 348.707 660.829 351.224 672.96 355.176C675.577 356.026 679.385 356.843 681.173 359.282C683.657 362.782 686.472 374.682 680.345 379.539Z" fill="#0A3C5F"/>
<path d="M644.801 295.61C643.962 307.532 641.621 319.752 634.866 329.654C633.419 331.784 631.322 333.992 628.761 333.727C628.014 333.611 627.303 333.329 626.678 332.903C626.054 332.478 625.532 331.918 625.151 331.265C624.396 329.955 623.897 328.513 623.683 327.015C621.475 315.369 625.074 303.492 628.606 292.177C630.075 287.518 632.006 279.272 636.753 276.722C641.699 274.106 644.182 282.186 644.635 285.487C645.046 288.846 645.101 292.239 644.801 295.61Z" fill="#F4A086"/>
<path fill-rule="evenodd" clip-rule="evenodd" d="M645.374 278.665C645.143 276.689 644.624 274.36 642.791 273.499C640.959 272.638 638.784 273.918 637.272 275.265C628.154 283.445 624.71 294.969 623.054 307.355L644.911 308.691C646.373 298.745 646.529 288.651 645.374 278.665Z" fill="#66BCD5"/>
<path fill-rule="evenodd" clip-rule="evenodd" d="M678.139 440.893C677.256 444.106 675.931 447.737 673.072 448.62C671.107 449.25 666.89 441.136 665.344 439.546C663.799 437.957 649.371 377.883 651.06 373.213C652.171 370.29 654.036 367.713 656.466 365.743C658.895 363.773 661.802 362.481 664.892 361.998C673.403 360.64 683.194 363.278 684.42 374.141C685.987 388.006 685.016 402.765 683.095 416.519C681.963 424.741 680.307 432.882 678.139 440.893Z" fill="#0A3C5F"/>
<path d="M614.984 327.832C614.735 328.543 614.708 329.313 614.905 330.04C615.102 330.767 615.514 331.418 616.088 331.906C617.192 332.921 624.919 336.542 632.415 333.208C636.201 331.53 636.83 327.876 635.45 324.377C633.618 319.575 615.713 326.199 614.984 327.832Z" fill="#F7B690"/>
<path fill-rule="evenodd" clip-rule="evenodd" d="M663.445 434.369C663.666 427.569 671.173 419.599 680.224 428.85C694.752 443.686 698.991 471.99 704.654 493.019L694.807 496.485C693.438 494.84 663.313 438.156 663.445 434.369Z" fill="#0A3C5F"/>
<path fill-rule="evenodd" clip-rule="evenodd" d="M685.556 322.026C689.1 310.667 693.438 296.636 691.484 284.758C686.671 278.886 676.847 265.264 657.341 265.264C643.675 265.264 633.43 279.073 631.057 282.584C628.419 286.492 629.379 292.066 630.03 296.581C631.432 306.218 635.605 344.104 631.984 370.387H687.179C687.102 357.847 681.991 333.473 685.556 322.026Z" fill="#66BCD5"/>
<path d="M698.262 308.216C695.493 297.722 689.741 288.255 681.704 280.961C680.258 279.658 678.304 278.356 676.516 279.118C676.039 279.352 675.62 279.69 675.29 280.106C674.96 280.522 674.726 281.007 674.606 281.524C674.372 282.555 674.298 283.616 674.385 284.67C674.882 297.012 677.123 309.21 679.364 321.364C679.892 325.127 680.902 328.807 682.366 332.314C683.86 335.846 686.654 338.668 690.171 340.196C692.036 340.902 695.072 341.3 696.794 339.986C698.174 338.882 698.406 336.167 698.748 334.61C699.982 329.071 700.373 323.377 699.907 317.721C699.642 314.51 699.091 311.329 698.262 308.216Z" fill="#F4A086"/>
<path fill-rule="evenodd" clip-rule="evenodd" d="M701.32 312.135C701.326 312.212 701.326 312.29 701.32 312.367C701.387 312.29 701.32 312.212 701.32 312.135Z" fill="#18898D"/>
<path fill-rule="evenodd" clip-rule="evenodd" d="M674.02 278.665C674.119 276.689 674.506 274.36 676.283 273.499C678.06 272.638 681.637 274.305 683.227 275.651C692.853 283.831 698.206 294.969 700.635 307.355L676.349 308.702C674.274 298.833 673.491 288.736 674.02 278.665Z" fill="#66BCD5"/>
<path d="M651.865 251.597C653.201 245.703 657.66 244.323 660.255 245.736C661.921 256.775 663.566 261.665 667.982 267.692C662.606 271.136 653.421 270.496 651.423 267.692C651.313 266.798 651.181 254.6 651.865 251.597Z" fill="#F4A086"/>
<path d="M652.164 237.755C650.874 236.907 649.391 236.398 647.853 236.275C646.315 236.152 644.77 236.418 643.362 237.05C641.954 237.681 640.727 238.657 639.796 239.888C638.865 241.119 638.259 242.564 638.034 244.091C637.018 250.339 643.299 261.069 646.28 262.802C651.49 265.849 658.5 258.541 658.743 255.075C659.107 249.908 656.645 240.857 652.164 237.755Z" fill="#F7B690"/>
<path fill-rule="evenodd" clip-rule="evenodd" d="M655.95 239.068C656.166 238.943 656.41 238.872 656.66 238.862C656.91 238.853 657.159 238.904 657.385 239.013C657.832 239.243 658.239 239.545 658.588 239.907C659.879 241.016 661.051 242.255 662.087 243.605C663.123 244.964 663.713 246.611 663.776 248.319C663.624 249.421 663.657 250.54 663.875 251.631C664.218 252.558 665.079 253.408 664.814 254.368C664.692 254.714 664.454 255.007 664.139 255.197C663.825 255.386 663.455 255.46 663.092 255.406C662.362 255.287 661.706 254.891 661.259 254.302C660.827 253.706 660.439 253.079 660.1 252.425C658.864 250.339 657.053 248.628 655.762 246.564C654.47 244.499 653.753 241.784 654.923 239.653L655.95 239.068Z" fill="#222B56"/>
<path fill-rule="evenodd" clip-rule="evenodd" d="M631.189 241.828L634.645 240.426C634.068 241.043 633.632 241.777 633.364 242.579C633.247 242.979 633.257 243.406 633.391 243.801C633.525 244.196 633.778 244.54 634.115 244.786C634.409 244.931 634.734 245.001 635.061 244.989C635.389 244.977 635.708 244.885 635.991 244.72C636.559 244.392 637.066 243.97 637.493 243.473C637.223 243.895 637.056 244.376 637.007 244.875C636.999 245.125 637.077 245.371 637.227 245.572C637.378 245.773 637.592 245.916 637.835 245.979C638.25 245.976 638.647 245.809 638.939 245.515L643.63 241.817C643.514 242.301 643.481 242.801 643.531 243.296C643.559 243.545 643.649 243.784 643.794 243.988C643.939 244.193 644.133 244.357 644.359 244.466C645.176 244.786 646.015 244.058 646.512 243.362C647.008 242.667 647.516 241.762 648.388 241.64C649.26 241.519 650.154 242.358 650.75 243.142L651.071 243.572L654.382 247.899C654.684 248.356 655.057 248.762 655.486 249.103C655.709 249.27 655.968 249.382 656.242 249.43C656.517 249.478 656.798 249.46 657.065 249.379C657.948 249.036 667.497 234.94 655.276 230.612C653.499 229.983 651.004 230.679 649.216 231.242C647.478 231.95 645.697 232.547 643.884 233.03C642.416 233.295 640.915 233.196 639.469 233.339C635.274 233.77 631.3 237.567 631.189 241.828Z" fill="#222B56"/>
<path d="M661.579 244.819C662.148 246.214 662.148 247.775 661.579 249.169C659.935 253.088 656.06 249.566 655.905 246.729C655.685 243.34 660.122 241.055 661.579 244.819Z" fill="#F7B690"/>
<path fill-rule="evenodd" clip-rule="evenodd" d="M622.546 517.249C622.402 515.759 623.826 514.523 625.283 514.17C626.769 513.977 628.272 513.943 629.765 514.07C631.911 514.016 634.003 513.393 635.83 512.267C637.656 511.14 639.152 509.549 640.164 507.657C640.369 507.103 640.729 506.62 641.201 506.266C641.567 506.105 641.973 506.057 642.366 506.128C642.759 506.198 643.122 506.385 643.409 506.663C644.016 507.16 644.436 507.844 644.999 508.396C645.499 508.89 646.092 509.279 646.744 509.54C647.396 509.802 648.094 509.931 648.796 509.92C649.966 509.92 651.28 509.003 652.417 509.6C653.554 510.196 653.675 511.498 653.929 512.481C654.36 514.17 654.757 515.881 655.166 517.57C655.27 517.93 655.341 518.3 655.375 518.673H647.229C646.835 517.803 646.55 516.887 646.379 515.947C646.351 516.897 646.11 517.829 645.672 518.673H623.241C622.857 518.289 622.613 517.788 622.546 517.249Z" fill="#66BCD5"/>
<path fill-rule="evenodd" clip-rule="evenodd" d="M696.661 512.977C696.406 512.459 696.282 511.886 696.301 511.308C696.321 510.73 696.482 510.166 696.772 509.666C697.269 509.125 697.379 506.431 697.423 502.535C697.423 500.757 700.481 499.223 703.031 501.353C703.848 502.06 704.532 502.457 705.106 502.237C705.68 502.016 705.835 501.011 706.497 501.409C707.198 502.118 707.739 502.969 708.087 503.903C708.826 505.438 709.555 506.994 710.295 508.529C710.46 508.871 710.626 509.235 710.769 509.633L697.456 514.313C697.112 513.92 696.842 513.468 696.661 512.977Z" fill="#66BCD5"/>
<path d="M658.709 344.015H625.592C624.562 343.959 623.573 343.589 622.76 342.953C621.947 342.317 621.348 341.448 621.044 340.461L606.473 288.412C606.311 288.008 606.253 287.568 606.306 287.136C606.358 286.703 606.519 286.29 606.773 285.936C607.028 285.582 607.367 285.297 607.76 285.109C608.153 284.92 608.588 284.834 609.023 284.858H642.14C643.171 284.914 644.159 285.285 644.972 285.92C645.786 286.556 646.384 287.426 646.688 288.412L661.259 340.461C661.418 340.866 661.473 341.304 661.42 341.736C661.366 342.167 661.205 342.578 660.951 342.932C660.698 343.285 660.36 343.57 659.968 343.759C659.576 343.948 659.144 344.036 658.709 344.015Z" fill="#A2D1EB"/>
<path d="M661.27 340.439L646.699 288.39C646.395 287.404 645.797 286.534 644.983 285.898C644.17 285.263 643.181 284.892 642.151 284.836H638.618C639.649 284.892 640.638 285.263 641.451 285.898C642.264 286.534 642.863 287.404 643.166 288.39L657.738 340.439C657.902 340.846 657.961 341.287 657.909 341.723C657.857 342.159 657.696 342.574 657.44 342.931C657.185 343.288 656.843 343.574 656.447 343.764C656.052 343.953 655.615 344.04 655.177 344.015H658.709C659.147 344.04 659.584 343.953 659.98 343.764C660.376 343.574 660.717 343.288 660.973 342.931C661.228 342.574 661.389 342.159 661.441 341.723C661.493 341.287 661.434 340.846 661.27 340.439Z" fill="#3C79A6"/>
<path d="M656.535 328.561C654.912 329.665 654.647 332.016 655.486 333.76C656.325 335.504 684.496 342.338 691.285 342.216C693.35 342.216 695.701 341.995 696.937 340.317C698.041 338.827 697.71 336.752 697.125 334.997C696.178 331.838 694.424 328.981 692.036 326.706C690.38 325.249 657.572 327.877 656.535 328.561Z" fill="#F7B690"/>
<path d="M646.368 323.56C645.694 322.622 645.01 321.353 645.694 320.381C645.954 320.094 646.294 319.892 646.67 319.801C647.046 319.711 647.441 319.736 647.803 319.873C648.522 320.161 649.18 320.581 649.746 321.11C650.507 321.826 651.444 322.328 652.461 322.567C652.976 322.664 653.508 322.575 653.963 322.316C654.418 322.057 654.766 321.645 654.945 321.154C655.21 320.05 654.338 318.648 655.155 317.842C655.391 317.657 655.679 317.549 655.978 317.531C656.278 317.513 656.576 317.587 656.833 317.743C657.333 318.074 657.758 318.506 658.08 319.012C659.968 321.562 661.911 324.212 662.661 327.291C663.412 330.371 662.661 334.058 660.144 335.913C658.954 336.696 657.546 337.082 656.122 337.017C654.699 336.951 653.332 336.438 652.218 335.549C651.355 334.799 650.655 333.881 650.161 332.849C649.667 331.818 649.391 330.697 649.348 329.554C649.072 327.015 647.913 325.713 646.368 323.56Z" fill="#F7B690"/>
<path d="M613.206 320.922C613.328 320.558 613.527 314.873 613.814 314.641C614.355 314.21 616.353 320.9 615.933 321.452L619.245 321.099C620.349 320.977 621.673 321.099 621.994 322.07C622.247 322.876 621.607 323.66 621.155 324.366C620.36 325.647 621.53 333.076 620.912 333.705C618.616 336.034 613.582 331.994 612.743 329.72C611.584 326.563 612.169 323.958 613.206 320.922Z" fill="#F7B690"/>
</svg>
