<svg width="122" height="33" viewBox="0 0 122 33" fill="none" xmlns="http://www.w3.org/2000/svg">
<path d="M41.968 16.408C43.488 16.408 44.608 16.768 45.328 17.488C46.048 18.208 46.408 19.328 46.408 20.848V27.256C46.408 27.752 46.16 28 45.664 28C45.168 28 44.92 27.752 44.92 27.256V26.272C44.104 27.424 42.768 28 40.912 28H39.568C38.288 28 37.344 27.704 36.736 27.112C36.144 26.504 35.848 25.56 35.848 24.28C35.848 23 36.152 22.064 36.76 21.472C37.368 20.864 38.304 20.56 39.568 20.56H44.92C44.888 19.552 44.648 18.856 44.2 18.472C43.768 18.088 43.024 17.896 41.968 17.896H40.576C39.616 17.896 38.912 17.992 38.464 18.184C38.016 18.36 37.728 18.672 37.6 19.12C37.52 19.36 37.424 19.536 37.312 19.648C37.2 19.744 37.032 19.792 36.808 19.792C36.568 19.792 36.376 19.728 36.232 19.6C36.088 19.456 36.04 19.264 36.088 19.024C36.232 18.128 36.672 17.472 37.408 17.056C38.144 16.624 39.2 16.408 40.576 16.408H41.968ZM44.92 24.088V22.048H39.568C38.704 22.048 38.112 22.208 37.792 22.528C37.488 22.832 37.336 23.416 37.336 24.28C37.336 25.144 37.488 25.736 37.792 26.056C38.112 26.36 38.704 26.512 39.568 26.512H40.912C42.08 26.512 42.984 26.336 43.624 25.984C44.28 25.616 44.688 25.064 44.848 24.328L44.92 24.088Z" fill="#22546E"/>
<path d="M56.0204 16.408C57.5404 16.408 58.6604 16.768 59.3804 17.488C60.1004 18.208 60.4604 19.328 60.4604 20.848V23.56C60.4604 25.08 60.1004 26.2 59.3804 26.92C58.6604 27.64 57.5404 28 56.0204 28H51.1004V32.056C51.1004 32.552 50.8524 32.8 50.3564 32.8C49.8604 32.8 49.6124 32.552 49.6124 32.056V17.152C49.6124 16.656 49.8604 16.408 50.3564 16.408C50.8524 16.408 51.1004 16.656 51.1004 17.152V17.92C51.9164 16.912 53.2524 16.408 55.1084 16.408H56.0204ZM58.9724 20.848C58.9724 19.728 58.7564 18.96 58.3244 18.544C57.8924 18.112 57.1244 17.896 56.0204 17.896H55.1084C53.8924 17.896 52.9244 18.08 52.2044 18.448C51.5004 18.8 51.1324 19.336 51.1004 20.056V26.512H56.0204C57.1244 26.512 57.8924 26.304 58.3244 25.888C58.7564 25.456 58.9724 24.68 58.9724 23.56V20.848Z" fill="#22546E"/>
<path d="M69.9142 16.408C71.4342 16.408 72.5541 16.768 73.2741 17.488C73.9941 18.208 74.3541 19.328 74.3541 20.848V23.56C74.3541 25.08 73.9941 26.2 73.2741 26.92C72.5541 27.64 71.4342 28 69.9142 28H64.9941V32.056C64.9941 32.552 64.7461 32.8 64.2501 32.8C63.7541 32.8 63.5061 32.552 63.5061 32.056V17.152C63.5061 16.656 63.7541 16.408 64.2501 16.408C64.7461 16.408 64.9941 16.656 64.9941 17.152V17.92C65.8101 16.912 67.1461 16.408 69.0021 16.408H69.9142ZM72.8661 20.848C72.8661 19.728 72.6501 18.96 72.2181 18.544C71.7861 18.112 71.0182 17.896 69.9142 17.896H69.0021C67.7861 17.896 66.8181 18.08 66.0981 18.448C65.3941 18.8 65.0261 19.336 64.9941 20.056V26.512H69.9142C71.0182 26.512 71.7861 26.304 72.2181 25.888C72.6501 25.456 72.8661 24.68 72.8661 23.56V20.848Z" fill="#22546E"/>
<path d="M87.0959 11.272C87.5919 11.272 87.8399 11.52 87.8399 12.016V27.256C87.8399 27.752 87.5919 28 87.0959 28C86.5999 28 86.3519 27.752 86.3519 27.256V26.536C85.6159 27.512 84.2799 28 82.3439 28H81.4319C79.9119 28 78.7919 27.64 78.0719 26.92C77.3519 26.2 76.9919 25.08 76.9919 23.56V20.848C76.9919 19.328 77.3519 18.208 78.0719 17.488C78.7919 16.768 79.9119 16.408 81.4319 16.408H86.3519V12.016C86.3519 11.52 86.5999 11.272 87.0959 11.272ZM82.3439 26.512C83.5759 26.512 84.5519 26.328 85.2719 25.96C85.9919 25.592 86.3519 25.056 86.3519 24.352V17.896H81.4319C80.3119 17.896 79.5359 18.112 79.1039 18.544C78.6879 18.976 78.4799 19.744 78.4799 20.848V23.56C78.4799 24.68 78.6959 25.456 79.1279 25.888C79.5599 26.304 80.3279 26.512 81.4319 26.512H82.3439Z" fill="#22546E"/>
<path d="M96.6993 16.408C98.2193 16.408 99.3393 16.768 100.059 17.488C100.779 18.208 101.139 19.328 101.139 20.848V27.256C101.139 27.752 100.891 28 100.395 28C99.8993 28 99.6513 27.752 99.6513 27.256V26.272C98.8353 27.424 97.4993 28 95.6433 28H94.2993C93.0193 28 92.0753 27.704 91.4673 27.112C90.8753 26.504 90.5793 25.56 90.5793 24.28C90.5793 23 90.8833 22.064 91.4913 21.472C92.0993 20.864 93.0353 20.56 94.2993 20.56H99.6513C99.6193 19.552 99.3793 18.856 98.9313 18.472C98.4993 18.088 97.7553 17.896 96.6993 17.896H95.3073C94.3473 17.896 93.6433 17.992 93.1953 18.184C92.7473 18.36 92.4593 18.672 92.3313 19.12C92.2513 19.36 92.1553 19.536 92.0433 19.648C91.9313 19.744 91.7633 19.792 91.5393 19.792C91.2993 19.792 91.1073 19.728 90.9633 19.6C90.8193 19.456 90.7713 19.264 90.8193 19.024C90.9633 18.128 91.4033 17.472 92.1393 17.056C92.8753 16.624 93.9313 16.408 95.3073 16.408H96.6993ZM99.6513 24.088V22.048H94.2993C93.4353 22.048 92.8433 22.208 92.5233 22.528C92.2193 22.832 92.0673 23.416 92.0673 24.28C92.0673 25.144 92.2193 25.736 92.5233 26.056C92.8433 26.36 93.4353 26.512 94.2993 26.512H95.6433C96.8113 26.512 97.7153 26.336 98.3553 25.984C99.0113 25.616 99.4193 25.064 99.5793 24.328L99.6513 24.088Z" fill="#22546E"/>
<path d="M109.12 26.512C109.616 26.512 109.864 26.76 109.864 27.256C109.864 27.752 109.616 28 109.12 28C107.616 28 106.512 27.656 105.808 26.968C105.104 26.264 104.752 25.16 104.752 23.656V17.896H103.408C102.912 17.896 102.664 17.648 102.664 17.152C102.664 16.656 102.912 16.408 103.408 16.408H104.752V14.08C104.752 13.584 105 13.336 105.496 13.336C105.992 13.336 106.24 13.584 106.24 14.08V16.408H109.168C109.664 16.408 109.912 16.656 109.912 17.152C109.912 17.648 109.664 17.896 109.168 17.896H106.24V23.656C106.24 24.392 106.328 24.968 106.504 25.384C106.68 25.784 106.976 26.072 107.392 26.248C107.808 26.424 108.384 26.512 109.12 26.512Z" fill="#22546E"/>
<path d="M112.31 22.792V23.584C112.31 24.688 112.518 25.456 112.934 25.888C113.366 26.304 114.142 26.512 115.262 26.512H117.23C118.174 26.512 118.862 26.4 119.294 26.176C119.742 25.936 120.022 25.544 120.134 25C120.166 24.76 120.238 24.584 120.35 24.472C120.478 24.344 120.662 24.28 120.902 24.28C121.158 24.28 121.35 24.352 121.478 24.496C121.606 24.624 121.654 24.808 121.622 25.048C121.494 26.056 121.07 26.8 120.35 27.28C119.63 27.76 118.59 28 117.23 28H115.262C113.742 28 112.622 27.648 111.902 26.944C111.182 26.224 110.822 25.104 110.822 23.584V20.848C110.822 19.312 111.182 18.184 111.902 17.464C112.622 16.744 113.742 16.392 115.262 16.408H117.23C118.75 16.408 119.87 16.768 120.59 17.488C121.31 18.208 121.67 19.328 121.67 20.848V22.048C121.67 22.544 121.422 22.792 120.926 22.792H112.31ZM112.31 21.304H120.182V20.848C120.182 19.728 119.966 18.96 119.534 18.544C119.118 18.112 118.35 17.896 117.23 17.896H115.262C114.51 17.88 113.918 17.968 113.486 18.16C113.07 18.336 112.766 18.64 112.574 19.072C112.398 19.488 112.31 20.08 112.31 20.848V21.304Z" fill="#22546E"/>
<path fill-rule="evenodd" clip-rule="evenodd" d="M41.6985 0.208509L43.4123 1.61907C43.5574 1.75383 43.6454 1.93873 43.6583 2.136C43.6713 2.33326 43.6082 2.52802 43.4819 2.68047L24.0734 27.3941C24.0042 27.4779 23.9182 27.5463 23.8209 27.595C23.7237 27.6437 23.6172 27.6716 23.5085 27.6768C23.3998 27.682 23.2911 27.6645 23.1896 27.6254C23.0881 27.5863 22.9959 27.5264 22.9189 27.4497L18.5281 23.2835C18.382 23.1376 18.2999 22.94 18.2999 22.7339C18.2999 22.5278 18.382 22.3302 18.5281 22.1844L20.1204 20.4346C20.2667 20.2889 20.465 20.2071 20.6718 20.2071C20.8785 20.2071 21.0768 20.2889 21.2231 20.4346L22.6005 21.7439C22.6782 21.8214 22.7714 21.8817 22.8741 21.9208C22.9768 21.9598 23.0866 21.9768 23.1964 21.9707C23.3061 21.9645 23.4133 21.9353 23.5109 21.8849C23.6086 21.8345 23.6944 21.7642 23.7629 21.6785L40.556 0.293817C40.623 0.209859 40.7066 0.140609 40.8017 0.0904191C40.8968 0.0402294 41.0012 0.0101847 41.1085 0.00217312C41.2158 -0.00583852 41.3236 0.00835602 41.4252 0.0438648C41.5267 0.0793735 41.6198 0.135429 41.6985 0.208509ZM29.0394 0.210672L30.8507 1.59941C30.9958 1.73417 31.0838 1.91907 31.0968 2.11634C31.1097 2.31361 31.0466 2.50836 30.9204 2.66081L11.4501 27.3844C11.3811 27.4681 11.2953 27.5365 11.1982 27.5852C11.1011 27.6338 10.9948 27.6617 10.8863 27.6669C10.7777 27.6722 10.6692 27.6547 10.5678 27.6156C10.4665 27.5765 10.3744 27.5167 10.2977 27.4399L0.228158 17.5204C0.0820604 17.3745 0 17.1769 0 16.9708C0 16.7647 0.0820604 16.5671 0.228158 16.4213L1.99764 14.6635C2.14393 14.5179 2.34223 14.4361 2.54898 14.4361C2.75574 14.4361 2.95403 14.5179 3.10033 14.6635L9.98319 21.5616C10.0609 21.6393 10.1542 21.6996 10.257 21.7387C10.3598 21.7778 10.4698 21.7947 10.5796 21.7884C10.6894 21.782 10.7967 21.7525 10.8943 21.7018C10.9918 21.651 11.0775 21.5803 11.1456 21.4941L27.8949 0.29598C27.9621 0.211966 28.0459 0.142682 28.1411 0.0924728C28.2364 0.0422635 28.341 0.0122118 28.4485 0.0042023C28.5559 -0.00380723 28.6639 0.0103981 28.7656 0.0459274C28.8673 0.0814568 28.9605 0.137544 29.0394 0.210672Z" fill="#47CE8D"/>
</svg>
